<svg xmlns="http://www.w3.org/2000/svg" width="103" height="29" fill="none" viewBox="0 0 103 29">
    <path fill="#5E5E5E" d="M17.969.285h12.224v5.006h-6.506v3.8h6.264v5.007h-6.264v8.504H17.97V.285zM35.79 15.967c.212 1.78 1.907 2.955 3.874 2.955 1.603 0 2.45-.693 3.056-1.568h5.144c-.817 1.87-1.997 3.317-3.42 4.283-1.391.995-3.056 1.508-4.78 1.508-4.811 0-8.896-3.89-8.896-8.867 0-4.674 3.691-8.987 8.805-8.987 2.572 0 4.78.995 6.354 2.654 2.118 2.262 2.754 4.946 2.36 8.022H35.791zm7.565-3.8c-.12-.784-1.15-2.654-3.752-2.654s-3.63 1.87-3.752 2.654h7.504zM50.404 5.864h4.72v1.87c.485-.905 1.362-2.443 4.267-2.443v5.036h-.182c-2.572 0-3.782.935-3.782 3.287v8.988h-5.023V5.864zM60.602 5.864h4.72v1.87c.484-.905 1.361-2.443 4.266-2.443v5.036h-.181c-2.572 0-3.783.935-3.783 3.287v8.988h-5.022V5.864zM88.015 22.602h-5.023v-1.81c-.907 1.629-2.995 2.383-4.962 2.383-5.326 0-8.442-4.162-8.442-8.957 0-5.489 3.964-8.927 8.442-8.927 2.754 0 4.297 1.327 4.962 2.352V5.864h5.023v16.738zm-13.404-8.294c0 1.538 1.15 4.192 4.175 4.192 1.786 0 2.875-.844 3.51-1.87.424-.663.636-1.387.696-2.14.061-.755-.09-1.508-.423-2.202-.545-1.146-1.695-2.322-3.813-2.322-2.874 0-4.145 2.412-4.145 4.312v.03zM89.527 19.163l7.08-9.5h-7.08v-3.8h12.497v3.8l-6.566 9.139h6.566v3.8H89.527v-3.439zM.15.25h8.244c2.304 0 4.152.513 5.426 1.51 1.302.967 2 2.447 2 4.351 0 1.72-.788 3.472-2.607 4.5 3.606 1.269 3.698 4.26 3.698 5.195 0 1.782-.698 3.746-2.062 4.864-2.062 1.722-3.546 1.933-7.335 1.933H.15V.25zm5.728 8.488H7.91c.393 0 1 0 1.515-.211.516-.243.91-.696.91-1.572 0-.844-.394-1.269-.88-1.48-.485-.212-1.09-.212-1.545-.212H5.878v3.475zm0 8.85h2.698c.363 0 1.09 0 1.697-.27.636-.273 1.152-.817 1.152-1.875 0-.965-.486-1.449-1.091-1.692-.576-.24-1.302-.24-1.757-.24H5.88v4.077zM16.385 23.87H.172v4.74h16.213v-4.74z"/>
</svg>
