<svg width="76" height="52" viewBox="0 0 76 52" fill="none" xmlns="http://www.w3.org/2000/svg">
<rect x="51.1007" y="52" width="4" height="4" rx="0.5" transform="rotate(-180 51.1007 52)" fill="#83D1FF"/>
<rect x="75.1007" y="52" width="4" height="4" rx="0.5" transform="rotate(-180 75.1007 52)" fill="#83D1FF"/>
<rect x="75.1007" y="4" width="4" height="4" rx="0.5" transform="rotate(-180 75.1007 4)" fill="#83D1FF"/>
<rect x="75.1007" y="28" width="4" height="4" rx="0.5" transform="rotate(-180 75.1007 28)" fill="#83D1FF"/>
<rect width="2" height="2" rx="0.5" transform="matrix(1 8.74228e-08 8.74228e-08 -1 48.1007 27)" fill="#83D1FF"/>
<rect opacity="0.6" width="4" height="4" rx="0.5" transform="matrix(1 8.74228e-08 8.74228e-08 -1 23.1007 28)" fill="#83D1FF"/>
<rect opacity="0.65" x="27.1007" y="52" width="4" height="4" rx="0.5" transform="rotate(-180 27.1007 52)" fill="#83D1FF"/>
<rect x="2.10071" y="51" width="2" height="2" rx="0.5" transform="rotate(-180 2.10071 51)" fill="#83D1FF"/>
</svg>
