<svg xmlns="http://www.w3.org/2000/svg" width="146" height="36" fill="none" viewBox="0 0 146 36">
    <g clip-path="url(#clip0)">
        <path fill="#5E5E5E" d="M114.175 7.547c-.032.297-.092.593-.092.89-.008 2.76-.024 5.518.01 8.276.008.673-.184.97-.934.914-.679-.05-1.366-.048-2.045 0-.749.053-.94-.248-.935-.92.028-3.479.012-6.957.012-10.436 0-1.583.035-3.167-.014-4.75-.022-.715.256-.95.967-.882.375.036.758.006 1.136.006 2.086 0 2.067.013 3.308 1.619 2.032 2.628 4.088 5.24 6.149 7.85.147.185.423.28.638.417.079-.237.226-.473.228-.71.016-2.783.027-5.566 0-8.348-.006-.619.179-.877.856-.837.755.043 1.516.031 2.273.004.587-.021.804.194.799.756-.022 2.136-.006 4.27-.006 6.406 0 2.974-.019 5.95.012 8.925.008.688-.24.845-.948.92-1.698.182-2.825-.347-3.869-1.699-2.088-2.705-4.416-5.243-6.635-7.857-.201-.237-.323-.533-.483-.803-.142.084-.285.172-.427.259zM144.662 5.097c-.315-.165-.503-.268-.698-.362-1.899-.919-3.907-1.13-5.954-.653-1.502.349-2.546 1.323-2.948 2.74-.682 2.407-.6 4.718 1.461 6.594 1.111 1.01 2.483 1.208 3.945 1.035.562-.066.809-.383.798-.943-.025-1.366.013-2.735-.016-4.1-.013-.59.201-.822.836-.792.831.04 1.666.02 2.5.006.456-.007.709.127.708.613-.013 2.327.008 4.653-.03 6.98-.003.238-.271.619-.494.682-2.698.763-5.454 1.062-8.225.46-2.95-.638-4.845-2.46-5.616-5.19-.864-3.064-.585-6.013 1.714-8.528 1.388-1.518 3.204-2.389 5.253-2.81 1.95-.4 3.913-.382 5.869-.017 1.165.217 1.166.233 1.09 1.342-.064.93-.123 1.861-.193 2.943zM71.504 9.142c0-2.542.015-5.085-.013-7.627-.008-.655.23-.885.921-.88 3.082.025 6.165.023 9.246 0 .644-.004.932.178.883.821-.044.597-.031 1.2-.003 1.799.026.525-.19.724-.748.718-1.718-.021-3.437-.009-5.154-.004-1.011.001-1.08.069-1.09 1.015-.005.456.022.912-.005 1.367-.04.69.31.94 1.004.932 1.615-.016 3.233.016 4.85-.012.626-.01.865.202.828.794-.038.622-.03 1.247-.001 1.87.023.507-.208.675-.717.67-1.642-.014-3.284-.007-4.927-.002-.947.003-1.023.078-1.03.995-.007.624.014 1.247-.004 1.871-.017.617.29.857.921.852 1.768-.012 3.538.024 5.306-.013.71-.015.944.233.897.88-.043.596-.017 1.198-.008 1.798.006.405-.152.634-.614.632-3.31-.003-6.619-.004-9.928.002-.594.001-.616-.363-.616-.776.003-2.57.002-5.136.002-7.702zM55.97 9.15c-.001-2.59.018-5.18-.015-7.77-.008-.59.209-.745.783-.741 3.158.016 6.317.018 9.476-.002.606-.003.89.163.845.779-.043.596-.036 1.2 0 1.798.033.557-.183.77-.782.76-1.717-.024-3.436-.01-5.155-.006-.952.003-1.022.073-1.03.991-.005.433-.005.863 0 1.296.011.906.125 1.015 1.117 1.02 1.466.007 2.932 0 4.397.004.99.003.997.012 1.002.979.002.503-.032 1.009.01 1.51.05.62-.189.856-.861.84-1.54-.037-3.082-.016-4.624-.008-.937.004-1.028.098-1.038 1.001-.006.576-.008 1.152 0 1.728.011.873.12.98 1.067.983 1.719.008 3.436.024 5.155-.007.658-.012.92.194.873.828-.044.62-.019 1.247-.01 1.87.009.422-.187.614-.634.612-3.335-.004-6.67-.007-10.006.005-.558.001-.576-.291-.572-.698.01-2.59.004-5.18.003-7.771zM40.959 9.15c0-2.544.016-5.086-.011-7.63-.006-.639.19-.893.904-.887 3.057.028 6.115.028 9.173.001.714-.006.943.247.896.887-.041.55-.037 1.106-.002 1.655.038.586-.193.81-.824.8-1.669-.028-3.337-.01-5.005-.007-1.068.001-1.154.087-1.158 1.116-.002.432.017.864-.004 1.295-.033.65.293.907.958.902 1.592-.013 3.186.027 4.776-.017.738-.02 1 .226.942.912-.047.548-.04 1.105-.001 1.653.044.612-.24.787-.846.776-1.592-.027-3.184-.014-4.776-.006-.928.005-1.043.116-1.046 1.005-.007 1.751-.02 3.503.003 5.254.006.547-.174.791-.78.767-.808-.033-1.618-.032-2.427 0-.607.022-.783-.23-.78-.773.017-2.57.008-5.136.008-7.703zM91.051 7.338c0 1.917-.006 3.836.004 5.753.003.836.13.952 1.017.958 1.819.01 3.637.022 5.454-.003.59-.008.82.179.792.744-.037.74-.023 1.486-.008 2.229.008.43-.19.6-.635.6-3.308-.007-6.616-.013-9.924.004-.69.003-.687-.393-.685-.853.003-3.307 0-6.616 0-9.923 0-1.775.02-3.549-.01-5.321-.01-.633.176-.933.898-.889.755.045 1.516.036 2.271.003.632-.029.839.22.833.803-.024 1.965-.01 3.93-.01 5.896l.003-.001zM105.877 9.175c0 2.544-.019 5.088.012 7.63.008.636-.213.858-.873.82-.73-.04-1.466-.005-2.199-.01-.96-.004-.989-.027-.991-.924-.003-3.168-.001-6.335-.001-9.502 0-1.897.022-3.791-.011-5.687-.011-.666.25-.903.934-.868.781.04 1.566.032 2.35.003.592-.02.791.202.787.762-.019 2.594-.008 5.186-.008 7.776zM52.54 32.04c-.523 1.185-1.367 2.151-2.585 2.727-4.091 1.934-9.003-.508-9.012-5.122-.005-2.338.908-4.148 3.007-5.374 3.344-1.952 7.975-.128 8.901 3.488.467 1.825.467 1.825-1.472 1.825-3.032 0-6.066-.001-9.099.002-.913.001-1.086.197-.945 1.02.368 2.138 2.243 4.045 4.351 4.423 2.623.47 4.851-.455 6.165-2.548.133-.213.309-.4.464-.598.074.055.148.107.224.158zm-5.488-2.76c1.59 0 3.178.006 4.767-.003.45-.003.915-.05.82-.658-.562-3.657-4.012-5.741-7.513-4.544-2.029.694-3.121 2.172-3.686 4.074-.256.862-.09 1.118.843 1.128 1.59.018 3.18.006 4.77.003zM87.107 32.05c-.625 1.43-1.67 2.517-3.244 3.029-4.452 1.449-8.336-1.412-8.354-5.445-.01-2.74 1.707-4.947 3.76-5.646 3.378-1.15 7.313.221 8.176 4.053.353 1.57.364 1.567-1.313 1.566-3.057-.002-6.115-.003-9.173.002-1.05.001-1.252.251-1.02 1.222.582 2.457 2.274 3.958 5.099 4.348 1.788.247 4.134-.59 5.446-2.733.117-.193.266-.369.399-.553l.224.157zm-5.596-2.741v.001h4.313c1.511 0 1.592-.098 1.192-1.46-.054-.184-.122-.365-.192-.544-1.105-2.838-4.21-4.207-7.19-3.15-2.146.761-3.213 2.365-3.715 4.386-.144.578.18.774.75.771 1.615-.01 3.23-.004 4.842-.004zM59.057 23.706c.154.24.345.465.456.723 1.377 3.188 2.738 6.384 4.121 9.571.102.235.349.413.527.618.176-.208.41-.39.518-.627 1.456-3.21 2.89-6.43 4.341-9.642.108-.24.298-.446.45-.667l.26.137c-.077.235-.134.479-.235.705-1.532 3.414-3.062 6.828-4.623 10.23-.127.278-.481.645-.72.64-.253-.007-.603-.368-.725-.647-1.486-3.407-2.94-6.825-4.397-10.244-.09-.211-.158-.431-.236-.646.088-.052.176-.101.263-.151zM126.126 23.543c3.441.014 6.16 2.636 6.106 5.89-.057 3.456-2.708 6.044-6.158 6.017-3.503-.028-6.084-2.572-6.065-5.974.019-3.389 2.657-5.948 6.117-5.933zm5.731 5.827c-.003-3.057-2.708-5.685-5.873-5.607-2.982.072-5.616 2.335-5.622 5.768-.006 3.293 2.578 5.712 5.785 5.666 3.391-.048 5.511-2.415 5.71-5.827zM144.734 26.091c-.089-.176-.193-.346-.265-.528-.479-1.238-1.555-1.829-3.133-1.71-1.282.097-2.283.935-2.465 2.155-.123.824.076 1.601.869 2.077.572.342 1.206.592 1.814.878.79.37 1.618.681 2.366 1.116 1.14.663 1.485 1.722 1.308 2.928-.182 1.228-.988 1.97-2.224 2.276-1.046.26-2.105.262-3.129-.119-1.328-.492-2.211-2.077-1.703-3.329.09.333.15.514.187.7.531 2.727 3.553 3.091 5.175 2.106 1.694-1.028 1.676-3.292-.084-4.306-1.049-.605-2.233-.995-3.341-1.512-1.537-.717-2.049-1.845-1.573-3.376.383-1.23 1.568-1.92 3.292-1.912 1.693.008 2.645.59 3.034 1.868.062.203.06.423.087.637-.071.015-.142.033-.215.051zM103.009 35.143c0-.33.008-.66-.002-.988-.055-2.155.005-4.32-.205-6.46-.233-2.364-2.047-3.784-4.453-3.76-2.331.023-4.289 1.562-4.47 3.804-.181 2.243-.08 4.505-.105 6.758-.003.271-.029.542-.043.813l-.204-.013v-11.25l.15-.03c.032.225.043.454.1.672.073.28.183.552.277.826.234-.152.525-.262.693-.463 1.703-2.03 7.081-2.13 8.263 1.49.214.652.271 1.367.284 2.056.038 2.038.019 4.077.016 6.116 0 .152-.054.303-.083.455-.071-.01-.145-.018-.218-.026zM109.018 23.542c.296-.035.592-.097.888-.101 1.584-.02 1.584-.014 1.584-1.544 0-.551-.009-1.104.005-1.655.006-.217.066-.432.103-.65.079 0 .158 0 .237-.002.037.232.102.464.106.696.015.792.018 1.583.005 2.375-.009.545.244.795.821.775.505-.016 1.01-.003 1.517-.003.003.125.004.25.008.375-.447.014-.893.032-1.339.04-.917.015-1.002.082-1.002.947-.005 3.262 0 6.526-.008 9.788 0 .277-.073.553-.112.828l-.271-.01c-.024-.21-.07-.419-.07-.628-.003-3.192.002-6.382 0-9.573 0-1.294-.058-1.34-1.394-1.355-.355-.005-.709-.046-1.064-.071l-.014-.232zM38.27.502C32.156.5 26.04.5 19.924.5 13.784.5 7.642.5 1.502.502.403.502.398.506.398 1.529v32.817c0 1.153.004 1.154 1.2 1.154 12.206 0 24.41-.002 36.616-.003 1.144 0 1.148-.002 1.148-1.07V1.536C39.362.504 39.36.501 38.269.501zm-5.7.444h4.068c2.276 0 2.274 0 2.276 2.16 0 1.197.004 2.394-.004 3.593-.001.25-.052.499-.102.958L32.44 1.182l.13-.236zm-6.733 19.493c.222.247.43.505.645.758l-.108.242c-1.948-.312-3.898-.623-6.113-.979.683-.968 1.222-1.765 1.794-2.538.683-.924.69-.91 1.465-.042.766.859 1.547 1.704 2.317 2.56zm-.853-5.557c2.168 1.075 4.285 2.123 6.4 3.173l.055.218c-.45.16-.895.33-1.349.478-.548.177-1.092.375-1.655.486-.243.048-.654-.015-.771-.173-.939-1.273-1.827-2.578-2.726-3.877-.019-.028.011-.087.046-.305zm1.567 7.848c.448 1.264.823 2.551 1.225 3.83l-.17.176-7.288-5.38.048-.19c.196-.012.399-.063.587-.031 1.637.271 3.276.527 4.897.864.283.06.597.439.701.73zm-2.872-9.373c-1.004-1.435-1.992-2.88-3.001-4.313-.279-.395-.25-.67.242-.82 1.915-.585 3.833-1.16 5.753-1.734.035-.01.087.036.234.102l-2.864 7c-.176-.11-.306-.15-.364-.235zm-1.71 2.83c.13.151.219.493.128.627-.633.947-1.316 1.866-1.992 2.788-.045.061-.17.069-.344.135l-1.353-7.122.209-.07c.096.062.214.106.285.186 1.029 1.146 2.062 2.29 3.067 3.456zm-2.966 2.585c.076.462.086.935.127 1.402l-.21.136c-3.39-2.52-6.784-5.04-10.176-7.56l.101-.224c.59-.092 1.175-.208 1.767-.27 2.13-.225 4.264-.43 6.394-.653.585-.062.83.105.92.714.316 2.158.721 4.303 1.077 6.455zM8.78 17.177c.483.282.606.55.426 1.11-.504 1.553-.895 3.137-1.338 4.708-.1.352-.23.699-.346 1.047l-.225.015-5.603-10.784.2-.155c.284.161.57.32.853.486 2.01 1.192 4.015 2.394 6.033 3.573zm-.223 5.372c.357-1.318.744-2.628 1.103-3.944.17-.627.337-.711.927-.363 1.479.872 2.95 1.753 4.42 2.635.143.086.256.217.553.478l-7.484 3.25c.186-.807.311-1.437.48-2.056zm.082 2.59c2.319-1 4.633-2.008 6.966-2.981.186-.079.63.022.716.168 1.33 2.204 2.62 4.428 3.916 6.648.02.035-.005.092-.024.348L8.34 25.573c-.033-.085-.068-.171-.1-.257.13-.06.263-.12.398-.178zm8.28-2.966c.316.09.483.104.61.18 1.26.749 2.528 1.485 3.754 2.28.257.166.54.586.492.835-.181.96-.489 1.9-.76 2.843-.024.08-.12.143-.287.335-1.284-2.18-2.503-4.253-3.808-6.473zm4.671 6.18c.29-.959.56-1.92.885-3.034l4.57 2.718-.066.213c-.283.05-.565.108-.85.149-1.316.194-2.636.375-3.953.58-.586.091-.744-.103-.586-.627zm.569 1.157c1.541-.223 3.08-.473 4.63-.617.368-.035.893.2 1.137.477.783.887 1.467 1.853 2.19 2.79l-.147.209-8.254-2.542c.26-.19.344-.303.444-.317zm6.29-.384l.168-.188c.77.492 1.6.922 2.272 1.515.223.197.034.813.034 1.238l-.36.101-2.115-2.666zm2.487.074L28.6 27.498c.9-.3 1.627-.306 2.354-.27.087.005.226.208.23.324.026.512.012 1.026.012 1.54l-.26.108zm-2.41-3.146l-.261-.044-1.31-3.875.267-.167c.73.83 1.605 1.584 2.135 2.517.353.619-.573 1.015-.831 1.569zm.052-5.631c-.3-.416-.234-.63.285-.77.821-.223 1.633-.477 2.444-.735.338-.107.661-.145.617.301-.15 1.545-.344 3.088-.526 4.63-.004.035-.07.062-.246.21-.194-.264-.36-.484-.518-.709-.685-.977-1.357-1.962-2.056-2.928zm3.271 7.053l.156-.104c.158.186.428.367.443.563.015.208-.214.432-.336.649-.087-.035-.175-.07-.263-.102v-1.006zm.355 2.304c.386.056.783.08 1.147.197.06.02-.028.452-.047.693l-.239.086-.98-.707c.04-.088.08-.179.119-.27zm.35-.606l-.092-.167c.184-.13.37-.369.55-.364.195.006.385.235.578.367l-.085.164h-.951zm.538-2.298c-.32-.464-.648-.922-.97-1.383l.19-.185 2.882 1.997c-1.425.555-1.423.555-2.102-.429zm1.23 1.613c.125-.235.457-.37.704-.545l.279.232-.517.938c-.169-.214-.523-.518-.466-.625zm.742-1.922c-.867-.58-1.746-1.147-2.578-1.768-.246-.182-.52-.536-.502-.793.117-1.621.312-3.237.592-4.89 1.22 2.468 2.094 5.055 3.19 7.79-.373-.177-.552-.238-.702-.339zm3.1-8.24c-1.073-1.236-2.158-2.465-3.255-3.68-.31-.345-.469-.622-.117-1.058 1.244-1.536 2.45-3.098 3.675-4.647.053-.068.15-.106.35-.24v10.03l-.333.246c-.104-.22-.164-.473-.32-.65zm.023.63c-.021.072-.042.145-.06.218-.85.05-1.7.113-2.55.131-.12.003-.33-.19-.358-.32-.291-1.293-.552-2.59-.823-3.888.08-.039.158-.078.237-.115l3.554 3.974zm-3.941-5.469c-.075-.025-.15-.05-.223-.076l-.713-3.101c-.096-.419-.245-.836-.258-1.258-.006-.205.236-.59.383-.598 1.48-.078 2.962-.095 4.445-.123.064-.002.13.055.384.17l-4.018 4.986zm1.266 6.947c-.116-.493.03-.741.58-.74.741.002 1.485 0 2.372 0l-1.99 4.28c-.177-.378-.32-.582-.372-.807-.21-.908-.377-1.825-.59-2.733zm1.351 4.839c.402.62.819 1.233 1.192 1.869.056.095-.088.426-.157.43-.25.017-.696-.003-.73-.108-.229-.693-.37-1.413-.539-2.124l.234-.067zm.461 3.092c.188-.157.446-.237.679-.347.066.101.131.204.198.305l-.705.52c-.063-.165-.223-.436-.172-.478zm.535-2.246c-.886-1.072-1.265-2.134-.364-3.425.5-.715.749-1.587 1.111-2.388l.23.037v6.8l-.162.08c-.269-.367-.524-.75-.815-1.104zM31.47 1.107l6.831 6.642c-.422.063-.633.117-.845.122-1.388.027-2.776.063-4.164.042-.203-.003-.534-.267-.581-.46-.434-1.769-.817-3.55-1.219-5.328-.066-.294-.144-.584-.218-.875l.196-.143zm-3.808 5.557c.084-.013.166-.027.25-.039 1.407 3.654 2.816 7.306 4.264 11.067-.283-.035-.44-.015-.554-.072-2.07-1.04-4.128-2.103-6.206-3.127-.645-.32-.763-.669-.48-1.32.88-2.033 1.69-4.093 2.528-6.143.053-.128.132-.245.198-.366zM17.903.941c2.4-.003 4.8-.013 7.2.029.277.004.698.247.796.477.513 1.198.943 2.425 1.396 3.645.038.104.024.226.049.524-3.389-1.507-6.63-2.95-10.07-4.482.368-.116.498-.193.63-.193zm-2.583.176c.894.363 1.79.72 2.68 1.092 2.63 1.101 5.258 2.205 7.882 3.318.16.068.278.225.416.34-.152.1-.29.239-.457.294-1.64.544-3.291 1.06-4.928 1.613-.626.213-1.043.163-1.45-.433-1.32-1.928-2.714-3.81-4.075-5.713-.079-.111-.131-.24-.198-.363.045-.048.088-.098.13-.147zm-1.935 5.484c1.2 1.324 2.394 2.652 3.59 3.98.292.323.506.656-.183.716-2.43.212-4.865.402-7.3.594-.14.01-.286-.043-.636-.101l4.008-5.63c.204.172.383.289.52.441zM7.608.94c.785-.065 1.386.102 1.866.774.848 1.188 1.802 2.307 2.66 3.49.157.216.208.68.068.882-1.112 1.625-2.28 3.216-3.437 4.813-.067.092-.178.154-.42.358-.082-.345-.147-.54-.174-.739-.384-2.966-.753-5.937-1.152-8.902-.065-.485.108-.636.589-.676zM5.918.99c.253.092.479.51.525.809.3 1.94.549 3.887.81 5.831.141 1.044.274 2.088.412 3.133l.152 1.161c-.298-.13-.466-.17-.59-.263C5.463 10.345 3.71 9.014 1.935 7.71c-.44-.324-.534-.6-.238-1.082C2.725 4.955 3.721 3.262 4.7 1.562c.285-.497.698-.76 1.218-.571zm-4.828.63c.014-.23.283-.621.462-.635C2.424.92 3.306.956 4.44.956l-3.115 5.25-.204-.088c0-.758.006-1.514-.001-2.271-.01-.743-.073-1.487-.029-2.226zm.025 12.252l.225-.046 5.768 11.046c-.402-.023-.6.003-.77-.05-1.529-.471-3.05-.964-4.578-1.435-.505-.155-.692-.43-.687-.955.017-2.655-.01-5.312-.016-7.967 0-.199.038-.396.058-.593zM9.2 35.107H5.59c-1.262 0-2.525-.008-3.786.003-.49.004-.723-.137-.72-.666.016-2.06-.018-4.119-.024-6.18 0-.197.063-.394.131-.791l8.145 7.458-.136.176zm.503-5.122c-.057 1.197-.016 2.397-.025 3.598-.002.226-.043.452-.065.678l-.22.123c-2.37-2.145-4.742-4.29-7.273-6.582.39-.018.573-.063.743-.03 1.978.378 3.952.779 5.932 1.148.649.12.941.391.908 1.065zm.534 3.855c-.007-1.266.012-2.533-.004-3.8-.006-.507.11-.763.733-.63 1.554.328 3.12.614 4.68.917l.054.221-5.335 4.015c-.064-.339-.128-.53-.128-.723zm.553 1.27c.18-.253.25-.425.38-.523 1.543-1.156 3.104-2.292 4.64-3.458.452-.343.794-.363 1.246.012 1.387 1.15 2.807 2.261 4.209 3.394.16.13.286.296.55.575H10.79zm11.1-.637l-4.387-3.532c.043-.072.085-.146.126-.218.993.194 1.993.355 2.974.59 1.521.363 1.515.384 1.516 1.892v1.178c-.075.028-.153.06-.229.09zm.842-2.411c.003-.094.258-.274.363-.253 1.293.244 2.58.52 3.87.786l.04.229-4.29 1.85c0-.97-.012-1.793.017-2.612zm.369 3.052c.288-.23.41-.378.568-.447 1.236-.532 2.474-1.059 3.723-1.562.204-.082.522-.138.688-.045.934.518 1.84 1.081 2.75 1.642.112.07.172.212.327.412H23.1zm7.96-.697c-.72-.422-1.395-.818-2.07-1.212l.108-.23c.576.126 1.167.213 1.727.388.513.158.459.54.234 1.054zm-2.296-7.72c.423-.57.698-.974 1.018-1.346.062-.071.362-.071.438.003.328.32.613.679 1.069 1.203l-2.525.14zm2.575 5.172c.18-.306.358-.613.537-.919l.745.51-1.03.62c-.084-.071-.168-.142-.252-.211zm6.668 3.25c-1.962-.033-3.926-.01-5.889-.01-.046-.06-.093-.118-.14-.177.276-.205.553-.408.829-.614.577-.432.514-.824-.178-1.083-.343-.128-.693-.244-1.03-.362.027-.116.025-.192.049-.2.96-.32 1.521-.967 1.961-1.833.234-.46.866-.726 1.268-1.126.28-.28.5-.625.7-.966.139-.238.199-.518.365-.977.214.36.312.581.462.763.258.315.518.81.831.85.317.04.709-.366 1.045-.606.147-.105.237-.284.435-.53.09.244.183.383.185.52.013 1.818-.005 3.637.022 5.455.008.632-.204.908-.915.896zm-6.194-.874c.05-.2.038-.497.169-.573.142-.085.418.036.636.067l.035.198-.665.415c-.058-.036-.117-.07-.175-.107z"/>
    </g>
    <defs>
        <clipPath id="clip0">
            <path fill="#fff" d="M0 0H144.894V35H0z" transform="translate(.398 .5)"/>
        </clipPath>
    </defs>
</svg>
