<svg width="36" height="30" viewBox="0 0 36 30" fill="none" xmlns="http://www.w3.org/2000/svg">
<g clip-path="url(#clip0)">
<path d="M4.8 10.3524L1.2 7.92355H0.599998V21.8893L1.2 24.9254L4.8 27.3542L17.4 29.1758L30.6 27.3542L35.4 24.3182V7.31635L30.375 10.3524L16.2 12.174L4.8 10.3524Z" fill="#D7FFD0"/>
<path d="M4.8 10.3524L1.2 7.92355H0.599998V21.8893L1.2 24.9254L4.8 27.3542L17.4 29.1758L30.6 27.3542L35.4 24.3182V7.31635L30.375 10.3524L16.2 12.174L4.8 10.3524Z" fill="url(#paint0_linear)"/>
<path d="M10.8 9.13796L8.4 10.9596L3.6 9.74517L0.599998 7.31634L2.4 4.2803L13.8 1.24426L26.4 1.85147L35.4 5.49472L34.8 8.53076L28.2 10.9596L27 9.74517L21 8.53076H17.4L10.8 9.13796Z" fill="#CCFFC4"/>
<path d="M13.8 20.675V28.5687L15 29.1759H22.2V20.0677L21 17.6389L18 16.4245L15 17.6389L13.8 20.675Z" fill="#AEFFA0"/>
<path d="M13.8 20.675V28.5687L15 29.1759H22.2V20.0677L21 17.6389L18 16.4245L15 17.6389L13.8 20.675Z" fill="url(#paint1_linear)"/>
<mask id="path-4-inside-1" fill="white">
<path d="M18 0.637085C9.756 0.637085 1.032 2.53765 0.09 6.07159C0.036 6.16268 0 6.2659 0 6.36913V23.711C0 27.3542 7.926 29.4491 16.014 29.7466C16.074 29.7648 16.134 29.7831 16.2 29.7831H19.8C19.866 29.7831 19.926 29.7648 19.986 29.7466C28.074 29.4491 36 27.3542 36 23.711V6.36913C36 6.2659 35.964 6.16268 35.91 6.07159C34.968 2.53765 26.244 0.637085 18 0.637085ZM34.8 18.2461C34.8 19.1083 33.768 20.0738 31.8 20.9239V16.3213C32.892 15.9144 33.906 15.3254 34.8 14.5664V18.2461ZM18 28.5686C17.592 28.5686 17.196 28.5626 16.8 28.5565V24.3182H19.2V28.5565C18.804 28.5626 18.408 28.5686 18 28.5686ZM19.8 23.1038H16.2C15.87 23.1038 15.6 23.377 15.6 23.711V28.514C15.192 28.4958 14.796 28.4776 14.4 28.4472V20.6749C14.4 18.6651 16.014 17.0317 18 17.0317C19.986 17.0317 21.6 18.6651 21.6 20.6749V28.4533C21.21 28.4776 20.808 28.5018 20.4 28.5201V23.711C20.4 23.377 20.13 23.1038 19.8 23.1038ZM18 9.13799C18.348 9.13799 18.696 9.14407 19.026 9.15014C23.514 9.27765 26.136 10.0913 27.132 10.7471C24.12 11.3118 21.066 11.585 18 11.5668C14.934 11.585 11.88 11.3118 8.868 10.7471C9.996 10.0184 13.14 9.13799 18 9.13799ZM22.146 18.24C23.004 18.1793 23.826 18.1004 24.6 18.0093V22.6969C24.024 22.7698 23.424 22.8366 22.8 22.8973V20.6749C22.8 19.8188 22.572 18.9748 22.146 18.24ZM21.222 17.0863C19.398 15.3922 16.602 15.3922 14.778 17.0803C13.614 17.0074 12.48 16.9042 11.394 16.7585V12.3683C13.59 12.6477 15.792 12.7812 18 12.7812C20.208 12.7812 22.41 12.6477 24.6 12.3744V16.7706C23.544 16.9103 22.422 17.0196 21.222 17.0863ZM13.2 20.6749V22.8852C12.588 22.8305 11.988 22.7637 11.4 22.6848V17.9911C12.192 18.0943 13.014 18.1732 13.854 18.24C13.428 18.9748 13.2 19.8188 13.2 20.6749ZM25.8 12.2044C27.426 11.9676 29.028 11.6033 30.6 11.1236V15.4651C29.034 15.9812 27.426 16.3638 25.8 16.6066V12.2044ZM10.2 12.2044V16.5824C8.574 16.3334 6.966 15.9509 5.4 15.4408V11.1236C6.972 11.6033 8.574 11.9615 10.2 12.2044ZM4.2 14.9854C3.792 14.8154 3.396 14.6211 3.012 14.4086C2.184 13.9228 1.2 13.1759 1.2 12.3258V9.00441C2.094 9.73913 3.114 10.3099 4.2 10.6985V14.9854ZM1.2 14.5907C1.578 14.9186 1.986 15.2101 2.424 15.459C2.994 15.7808 3.588 16.0602 4.2 16.297V20.9057C3.792 20.7357 3.396 20.5414 3.012 20.3228C2.184 19.8431 1.2 19.0962 1.2 18.2461V14.5907ZM5.4 16.722C6.972 17.2078 8.574 17.5782 10.2 17.8211V22.5087C8.574 22.2598 6.966 21.8772 5.4 21.3672V16.722ZM10.2 23.7353V27.9857C8.574 27.7368 6.966 27.3542 5.4 26.8442V22.6423C6.972 23.122 8.574 23.4924 10.2 23.7353ZM11.4 23.9053C11.988 23.9782 12.588 24.0449 13.2 24.0996V28.3561C12.582 28.3015 11.982 28.2347 11.4 28.1557V23.9053ZM22.8 24.1117C23.424 24.0571 24.024 23.9964 24.6 23.9235V28.1618C24.018 28.2347 23.418 28.3015 22.8 28.3622V24.1117ZM25.8 23.7596C27.426 23.5288 29.034 23.1706 30.6 22.6787V26.8442C29.034 27.3542 27.426 27.7368 25.8 27.9857V23.7596ZM25.8 22.5209V17.8393C27.426 17.6085 29.034 17.2442 30.6 16.7524V21.3793C29.034 21.8954 27.426 22.278 25.8 22.5209ZM34.8 12.3258C34.8 13.2124 33.744 14.1717 31.8 15.0036V10.6985C32.886 10.3099 33.906 9.73913 34.8 9.00441V12.3258ZM18 1.8515C27.9 1.8515 34.8 4.41392 34.8 6.70916C34.8 8.05109 32.448 9.47803 28.518 10.4374C27.906 9.72698 27.096 9.223 26.19 8.99226L29.82 5.31866C30.054 5.08185 30.048 4.69323 29.814 4.46249C29.58 4.23176 29.208 4.23176 28.974 4.46249L24.864 8.62187C23.532 8.32434 22.176 8.13003 20.814 8.03288L23.304 4.00102C23.478 3.71563 23.394 3.34523 23.118 3.16307C22.842 2.98091 22.47 3.06592 22.296 3.34523C22.296 3.34523 22.296 3.34523 22.296 3.3513L19.458 7.95394C19.326 7.94787 19.194 7.94179 19.062 7.93572C18.708 7.92965 18.36 7.92358 18 7.92358C17.52 7.92358 17.034 7.93572 16.554 7.95394L13.71 3.3513C13.536 3.06592 13.164 2.98091 12.882 3.157C12.6 3.33309 12.516 3.70956 12.69 3.99494L15.18 8.0268C13.818 8.12396 12.468 8.31826 11.136 8.62187L7.02 4.45642C6.786 4.21961 6.402 4.21961 6.174 4.46249C5.94 4.69931 5.94 5.08185 6.174 5.31866L9.816 9.00441C8.916 9.23515 8.1 9.73913 7.488 10.4435C3.558 9.4841 1.2 8.05109 1.2 6.70916C1.2 4.41392 8.1 1.8515 18 1.8515ZM1.2 23.711V20.511C1.578 20.8389 1.986 21.1303 2.418 21.3793C2.988 21.7011 3.588 21.9804 4.2 22.2112V26.3827C2.28 25.569 1.2 24.6218 1.2 23.711ZM31.8 26.3827V22.2415C32.892 21.8408 33.906 21.2457 34.8 20.4867V23.711C34.8 24.6218 33.72 25.569 31.8 26.3827Z"/>
</mask>
<path d="M18 0.637085C9.756 0.637085 1.032 2.53765 0.09 6.07159C0.036 6.16268 0 6.2659 0 6.36913V23.711C0 27.3542 7.926 29.4491 16.014 29.7466C16.074 29.7648 16.134 29.7831 16.2 29.7831H19.8C19.866 29.7831 19.926 29.7648 19.986 29.7466C28.074 29.4491 36 27.3542 36 23.711V6.36913C36 6.2659 35.964 6.16268 35.91 6.07159C34.968 2.53765 26.244 0.637085 18 0.637085ZM34.8 18.2461C34.8 19.1083 33.768 20.0738 31.8 20.9239V16.3213C32.892 15.9144 33.906 15.3254 34.8 14.5664V18.2461ZM18 28.5686C17.592 28.5686 17.196 28.5626 16.8 28.5565V24.3182H19.2V28.5565C18.804 28.5626 18.408 28.5686 18 28.5686ZM19.8 23.1038H16.2C15.87 23.1038 15.6 23.377 15.6 23.711V28.514C15.192 28.4958 14.796 28.4776 14.4 28.4472V20.6749C14.4 18.6651 16.014 17.0317 18 17.0317C19.986 17.0317 21.6 18.6651 21.6 20.6749V28.4533C21.21 28.4776 20.808 28.5018 20.4 28.5201V23.711C20.4 23.377 20.13 23.1038 19.8 23.1038ZM18 9.13799C18.348 9.13799 18.696 9.14407 19.026 9.15014C23.514 9.27765 26.136 10.0913 27.132 10.7471C24.12 11.3118 21.066 11.585 18 11.5668C14.934 11.585 11.88 11.3118 8.868 10.7471C9.996 10.0184 13.14 9.13799 18 9.13799ZM22.146 18.24C23.004 18.1793 23.826 18.1004 24.6 18.0093V22.6969C24.024 22.7698 23.424 22.8366 22.8 22.8973V20.6749C22.8 19.8188 22.572 18.9748 22.146 18.24ZM21.222 17.0863C19.398 15.3922 16.602 15.3922 14.778 17.0803C13.614 17.0074 12.48 16.9042 11.394 16.7585V12.3683C13.59 12.6477 15.792 12.7812 18 12.7812C20.208 12.7812 22.41 12.6477 24.6 12.3744V16.7706C23.544 16.9103 22.422 17.0196 21.222 17.0863ZM13.2 20.6749V22.8852C12.588 22.8305 11.988 22.7637 11.4 22.6848V17.9911C12.192 18.0943 13.014 18.1732 13.854 18.24C13.428 18.9748 13.2 19.8188 13.2 20.6749ZM25.8 12.2044C27.426 11.9676 29.028 11.6033 30.6 11.1236V15.4651C29.034 15.9812 27.426 16.3638 25.8 16.6066V12.2044ZM10.2 12.2044V16.5824C8.574 16.3334 6.966 15.9509 5.4 15.4408V11.1236C6.972 11.6033 8.574 11.9615 10.2 12.2044ZM4.2 14.9854C3.792 14.8154 3.396 14.6211 3.012 14.4086C2.184 13.9228 1.2 13.1759 1.2 12.3258V9.00441C2.094 9.73913 3.114 10.3099 4.2 10.6985V14.9854ZM1.2 14.5907C1.578 14.9186 1.986 15.2101 2.424 15.459C2.994 15.7808 3.588 16.0602 4.2 16.297V20.9057C3.792 20.7357 3.396 20.5414 3.012 20.3228C2.184 19.8431 1.2 19.0962 1.2 18.2461V14.5907ZM5.4 16.722C6.972 17.2078 8.574 17.5782 10.2 17.8211V22.5087C8.574 22.2598 6.966 21.8772 5.4 21.3672V16.722ZM10.2 23.7353V27.9857C8.574 27.7368 6.966 27.3542 5.4 26.8442V22.6423C6.972 23.122 8.574 23.4924 10.2 23.7353ZM11.4 23.9053C11.988 23.9782 12.588 24.0449 13.2 24.0996V28.3561C12.582 28.3015 11.982 28.2347 11.4 28.1557V23.9053ZM22.8 24.1117C23.424 24.0571 24.024 23.9964 24.6 23.9235V28.1618C24.018 28.2347 23.418 28.3015 22.8 28.3622V24.1117ZM25.8 23.7596C27.426 23.5288 29.034 23.1706 30.6 22.6787V26.8442C29.034 27.3542 27.426 27.7368 25.8 27.9857V23.7596ZM25.8 22.5209V17.8393C27.426 17.6085 29.034 17.2442 30.6 16.7524V21.3793C29.034 21.8954 27.426 22.278 25.8 22.5209ZM34.8 12.3258C34.8 13.2124 33.744 14.1717 31.8 15.0036V10.6985C32.886 10.3099 33.906 9.73913 34.8 9.00441V12.3258ZM18 1.8515C27.9 1.8515 34.8 4.41392 34.8 6.70916C34.8 8.05109 32.448 9.47803 28.518 10.4374C27.906 9.72698 27.096 9.223 26.19 8.99226L29.82 5.31866C30.054 5.08185 30.048 4.69323 29.814 4.46249C29.58 4.23176 29.208 4.23176 28.974 4.46249L24.864 8.62187C23.532 8.32434 22.176 8.13003 20.814 8.03288L23.304 4.00102C23.478 3.71563 23.394 3.34523 23.118 3.16307C22.842 2.98091 22.47 3.06592 22.296 3.34523C22.296 3.34523 22.296 3.34523 22.296 3.3513L19.458 7.95394C19.326 7.94787 19.194 7.94179 19.062 7.93572C18.708 7.92965 18.36 7.92358 18 7.92358C17.52 7.92358 17.034 7.93572 16.554 7.95394L13.71 3.3513C13.536 3.06592 13.164 2.98091 12.882 3.157C12.6 3.33309 12.516 3.70956 12.69 3.99494L15.18 8.0268C13.818 8.12396 12.468 8.31826 11.136 8.62187L7.02 4.45642C6.786 4.21961 6.402 4.21961 6.174 4.46249C5.94 4.69931 5.94 5.08185 6.174 5.31866L9.816 9.00441C8.916 9.23515 8.1 9.73913 7.488 10.4435C3.558 9.4841 1.2 8.05109 1.2 6.70916C1.2 4.41392 8.1 1.8515 18 1.8515ZM1.2 23.711V20.511C1.578 20.8389 1.986 21.1303 2.418 21.3793C2.988 21.7011 3.588 21.9804 4.2 22.2112V26.3827C2.28 25.569 1.2 24.6218 1.2 23.711ZM31.8 26.3827V22.2415C32.892 21.8408 33.906 21.2457 34.8 20.4867V23.711C34.8 24.6218 33.72 25.569 31.8 26.3827Z" fill="#75BE69" stroke="white" stroke-width="0.4" mask="url(#path-4-inside-1)"/>
<path d="M19.722 18.9869C18.798 18.0275 17.28 18.0032 16.326 18.9383C15.864 19.3937 15.6 20.0191 15.6 20.6749C15.6 21.0089 15.87 21.2821 16.2 21.2821C16.53 21.2821 16.8 21.0089 16.8 20.6749C16.8 20.3531 16.926 20.0434 17.154 19.8188C17.628 19.3451 18.396 19.3573 18.858 19.837C19.08 20.0616 19.2 20.3592 19.2 20.6749C19.2 21.0089 19.47 21.2821 19.8 21.2821C20.13 21.2821 20.4 21.0089 20.4 20.6749C20.4 20.0434 20.16 19.4362 19.722 18.9869Z" fill="#75BE69"/>
</g>
<defs>
<linearGradient id="paint0_linear" x1="18" y1="7.31635" x2="18" y2="29.1758" gradientUnits="userSpaceOnUse">
<stop stop-color="white"/>
<stop offset="1" stop-color="white" stop-opacity="0"/>
</linearGradient>
<linearGradient id="paint1_linear" x1="18" y1="29.1759" x2="18" y2="16.4245" gradientUnits="userSpaceOnUse">
<stop stop-color="#F0FFE3"/>
<stop offset="1" stop-color="white" stop-opacity="0"/>
</linearGradient>
<clipPath id="clip0">
<rect width="36" height="29.146" fill="white" transform="translate(0 0.637085)"/>
</clipPath>
</defs>
</svg>
