<svg xmlns="http://www.w3.org/2000/svg" width="74" height="44" fill="none" viewBox="0 0 74 44">
    <path fill="#5E5E5E" d="M27.612 3.81c.545-.104.902-.104 1.033.032.075.085.099.23-.005.41-.056.098-.117.183-.225.314-4.612 5.438-8.125 13.465-9.125 15.782-.075.16-.15.315-.211.423-.09.165-.216.3-.437.315-.122.005-.291-.023-.545-.179-3.057-1.889-4.875-4.244-4.875-6.796 0-4.61 5.922-8.572 14.39-10.302zm4.73 3.468c.436-1.006 1.183-3.163 2.901-4.018.522-.259 1.165-.381 1.738-.4.127-.005.22 0 .258 0 4.814 0 9.295.667 13.052 1.814.028.01.112.043.14.052.348.113.527.273.527.47 0 .174-.094.3-.216.423-.052.052-.132.122-.24.211-.864.724-3.475 2.614-8.388 4.493-1.723.663-3.879 1.48-6.133 1.96-1.325.277-6.232 1.025-3.64-5.005zm22.918.17c.093-.165.215-.297.44-.311.123-.01.292.023.541.179 3.062 1.889 4.88 4.244 4.88 6.79 0 4.611-5.923 8.573-14.386 10.303-.544.108-.906.103-1.028-.033-.084-.085-.108-.235 0-.414.052-.094.113-.178.225-.315 4.612-5.437 8.12-13.46 9.12-15.777.076-.16.146-.315.208-.423zM42.08 20.921c-.432 1.01-1.183 3.167-2.902 4.023-.517.253-1.16.38-1.738.4-.126.004-.22 0-.258 0-4.814 0-9.294-.668-13.042-1.815-.033-.01-.117-.042-.145-.052-.348-.113-.522-.277-.522-.47 0-.174.09-.305.216-.427.052-.052.132-.123.235-.212.87-.724 3.476-2.613 8.388-4.493 1.723-.658 3.88-1.48 6.138-1.955 1.315-.282 6.223-1.034 3.63 5zm-4.907 6.556c14.404 0 26.079-5.983 26.079-13.367C63.253 6.733 51.578.75 37.173.75 22.77.75 11.096 6.733 11.096 14.11c0 7.384 11.675 13.367 26.079 13.367zM7.493 32.875v4.063H2.89v-4.063H.352V43.54H2.89v-4.288h4.603v4.288h2.535V32.875H7.493zM19.33 32.875l-2.656 4.222-2.65-4.222h-2.995l4.381 6.971v3.695h2.536v-3.695l4.381-6.971H19.33zM30.488 32.875v7.818c0 .298-.225.538-.54.538h-4.069v-8.356h-2.535V43.54h7.496c.669 0 1.204-.198 1.596-.588.389-.392.584-.927.584-1.591v-8.487h-2.532zM42.87 32.875h-7.496V43.54h2.535v-8.356h4.07c.327 0 .538.256.538.533v7.823h2.533v-8.484c0-.667-.198-1.202-.585-1.592-.394-.394-.927-.59-1.595-.59zM54.541 35.733v4.944c0 .288-.211.551-.54.551h-4.068v-6.046h4.05c.334 0 .558.232.558.551zm.358-2.861h-7.5v10.666h7.497c.666 0 1.199-.198 1.59-.588.392-.392.588-.927.588-1.59v-6.306c0-.666-.196-1.202-.587-1.594-.39-.39-.925-.588-1.588-.588zM66.458 35.184v2.746H61.85v-2.205c0-.264.203-.541.54-.541h4.068zm-4.961-2.31c-.666 0-1.204.196-1.59.588-.392.39-.588.925-.588 1.591v8.485h2.53v-3.3h4.61v3.3h2.532V32.87h-7.494v.003zM71.46 43.538h2.536V32.872H71.46v10.666z"/>
</svg>
