<svg width="40" height="40" viewBox="0 0 40 40" fill="none" xmlns="http://www.w3.org/2000/svg">
<path d="M20 9.0692C23.5602 9.0692 23.9818 9.08275 25.3878 9.1469C26.6878 9.20623 27.3938 9.42344 27.8636 9.60598C28.486 9.84786 28.9302 10.1368 29.3967 10.6034C29.8633 11.0699 30.1522 11.5141 30.3941 12.1365C30.5767 12.6063 30.7939 13.3123 30.8532 14.6123C30.9174 16.0183 30.9309 16.4399 30.9309 20.0001C30.9309 23.5603 30.9174 23.9819 30.8532 25.3879C30.7939 26.6879 30.5767 27.3939 30.3941 27.8638C30.1522 28.4861 29.8633 28.9303 29.3967 29.3968C28.9302 29.8634 28.486 30.1524 27.8636 30.3942C27.3938 30.5768 26.6878 30.794 25.3878 30.8533C23.982 30.9175 23.5604 30.931 20 30.931C16.4396 30.931 16.0179 30.9175 14.6122 30.8533C13.3122 30.794 12.6062 30.5768 12.1364 30.3942C11.514 30.1524 11.0698 29.8634 10.6033 29.3968C10.1367 28.9303 9.84774 28.4861 9.60592 27.8638C9.42332 27.3939 9.20611 26.6879 9.14678 25.3879C9.08263 23.9819 9.06908 23.5603 9.06908 20.0001C9.06908 16.4399 9.08263 16.0183 9.14678 14.6123C9.20611 13.3123 9.42332 12.6063 9.60592 12.1365C9.84774 11.5141 10.1367 11.0699 10.6033 10.6034C11.0698 10.1368 11.514 9.84786 12.1364 9.60598C12.6062 9.42344 13.3122 9.20623 14.6122 9.1469C16.0182 9.08275 16.4398 9.0692 20 9.0692ZM20 6.66675C16.3789 6.66675 15.9248 6.6821 14.5027 6.74698C13.0835 6.81177 12.1143 7.03713 11.2661 7.36676C10.3893 7.7075 9.64577 8.16341 8.90454 8.90465C8.1633 9.64589 7.70739 10.3895 7.36664 11.2662C7.03702 12.1144 6.81165 13.0836 6.74687 14.5028C6.68198 15.9249 6.66669 16.379 6.66669 20.0001C6.66669 23.6212 6.68198 24.0753 6.74687 25.4974C6.81165 26.9166 7.03702 27.8858 7.36664 28.734C7.70739 29.6107 8.1633 30.3543 8.90454 31.0956C9.64577 31.8368 10.3893 32.2927 11.2661 32.6335C12.1143 32.9631 13.0835 33.1884 14.5027 33.2532C15.9248 33.3181 16.3789 33.3334 20 33.3334C23.6211 33.3334 24.0752 33.3181 25.4973 33.2532C26.9165 33.1884 27.8857 32.9631 28.7339 32.6335C29.6106 32.2927 30.3542 31.8368 31.0954 31.0956C31.8367 30.3543 32.2926 29.6108 32.6333 28.734C32.963 27.8858 33.1883 26.9166 33.2531 25.4974C33.318 24.0753 33.3334 23.6212 33.3334 20.0001C33.3334 16.379 33.318 15.9249 33.2531 14.5028C33.1883 13.0836 32.963 12.1144 32.6333 11.2662C32.2926 10.3895 31.8367 9.64589 31.0954 8.90465C30.3542 8.16341 29.6106 7.7075 28.7339 7.36676C27.8857 7.03713 26.9165 6.81177 25.4973 6.74698C24.0752 6.6821 23.6211 6.66675 20 6.66675ZM20 13.1532C16.2186 13.1532 13.1531 16.2187 13.1531 20.0001C13.1531 23.7815 16.2186 26.847 20 26.847C23.7814 26.847 26.8469 23.7815 26.8469 20.0001C26.8469 16.2187 23.7814 13.1532 20 13.1532ZM20 24.4446C17.5454 24.4446 15.5555 22.4547 15.5555 20.0001C15.5555 17.5455 17.5454 15.5556 20 15.5556C22.4546 15.5556 24.4445 17.5455 24.4445 20.0001C24.4445 22.4547 22.4546 24.4446 20 24.4446ZM28.7173 12.8827C28.7173 13.7664 28.001 14.4828 27.1174 14.4828C26.2337 14.4828 25.5173 13.7664 25.5173 12.8827C25.5173 11.9991 26.2337 11.2828 27.1174 11.2828C28.001 11.2828 28.7173 11.9991 28.7173 12.8827Z" fill="#5E5E5E"/>
</svg>
