<svg width="40" height="40" viewBox="0 0 40 40" fill="none" xmlns="http://www.w3.org/2000/svg">
<path d="M29.556 8.33325H10.444C9.27831 8.33325 8.33331 9.27825 8.33331 10.4439V29.5558C8.33331 30.7216 9.27831 31.6666 10.444 31.6666H29.5559C30.7216 31.6666 31.6666 30.7216 31.6666 29.5558V10.4439C31.6666 9.27825 30.7216 8.33325 29.556 8.33325ZM15.5536 28.4808C15.5536 28.82 15.2786 29.095 14.9394 29.095H12.3247C11.9855 29.095 11.7105 28.82 11.7105 28.4808V17.5202C11.7105 17.1809 11.9855 16.9059 12.3247 16.9059H14.9394C15.2786 16.9059 15.5536 17.1809 15.5536 17.5202V28.4808ZM13.6321 15.8727C12.2602 15.8727 11.1481 14.7606 11.1481 13.3888C11.1481 12.0169 12.2602 10.9048 13.6321 10.9048C15.0039 10.9048 16.116 12.0169 16.116 13.3888C16.116 14.7606 15.004 15.8727 13.6321 15.8727ZM29.2179 28.5303C29.2179 28.8422 28.965 29.095 28.6531 29.095H25.8474C25.5355 29.095 25.2826 28.8422 25.2826 28.5303V23.3891C25.2826 22.6222 25.5076 20.0283 23.2783 20.0283C21.5491 20.0283 21.1984 21.8037 21.128 22.6005V28.5303C21.128 28.8422 20.8752 29.095 20.5632 29.095H17.8496C17.5377 29.095 17.2848 28.8422 17.2848 28.5303V17.4707C17.2848 17.1588 17.5377 16.9059 17.8496 16.9059H20.5632C20.8751 16.9059 21.128 17.1588 21.128 17.4707V18.4269C21.7692 17.4647 22.722 16.722 24.7509 16.722C29.2436 16.722 29.2179 20.9193 29.2179 23.2255V28.5303Z" fill="#5E5E5E"/>
</svg>
