<svg xmlns="http://www.w3.org/2000/svg" width="151" height="34" fill="none" viewBox="0 0 151 34">
    <g clip-path="url(#clip0)">
        <path fill="#5E5E5E" d="M81.654 13.967c-2.459 0-4.914.008-7.373-.003-2.605-.01-4.203-2.018-3.21-4.207.95-2.102 2.006-4.175 3.189-6.174C75.41 1.643 77.43.839 79.788.82c4.295-.038 8.59-.01 12.884-.01 3.434 0 4.933 3.133 3.645 5.251-.98 1.613-1.734 3.339-2.593 5.016-.986 1.93-2.613 2.925-4.995 2.895-2.36-.027-4.718-.005-7.075-.005zm.56-3.967c1.043 0 2.087.022 3.13-.005.92-.024 1.71-.333 2.134-1.13.605-1.137 1.17-2.29 1.767-3.432.238-.457.146-.66-.45-.654-2.11.013-4.223-.011-6.333.016-.927.013-1.702.379-2.128 1.158-.63 1.15-1.192 2.33-1.803 3.487-.227.428-.087.569.405.566 1.09-.014 2.185-.006 3.278-.006zM139.267 13.967c-1.043 0-2.086-.014-3.129.005-.474.008-.784-.149-1.052-.5-.978-1.277-1.985-2.533-2.975-3.802-.733-.941-1.925-.846-2.476.2-.322.61-.632 1.226-.993 1.813-.897 1.456-2.277 2.227-4.116 2.273-1.165.03-2.333 0-3.499.008-.566.006-.801-.138-.518-.679 1.687-3.239 3.362-6.48 5.037-9.724.369-.714.718-1.437 1.061-2.159.202-.428.527-.606 1.043-.6 1.91.013 3.823 0 5.734.007.796.003.858.12.506.81-.554 1.082-1.105 2.167-1.657 3.252-.071.138-.22.297-.098.438.143.17.37.073.554.027 1.356-.322 2.382-1.19 3.568-1.794 1.126-.57 2.199-1.226 3.296-1.842 1.133-.639 2.396-.864 3.702-.882 2.059-.03 4.121-.014 6.181-.006.229 0 .572-.108.659.157.089.27-.26.346-.456.455-3.464 1.899-6.921 3.801-10.402 5.67-.569.306-.644.523-.244 1.02 1.341 1.678 2.628 3.388 3.931 5.093.134.175.375.36.229.598-.143.235-.444.154-.679.156-1.073.011-2.14.006-3.207.006zM107.255 13.967c-2.059 0-4.122.008-6.181-.003-2.614-.014-4.185-2.127-3.139-4.307.96-2.002 1.94-4.005 3.07-5.931 1.13-1.926 3.061-2.882 5.442-2.9 5.362-.044 10.723-.02 16.085-.014.757 0 .826.127.501.766-.406.798-.853 1.58-1.201 2.4-.268.63-.692.825-1.416.817-3.475-.027-6.95.016-10.425-.027-1.52-.02-2.56.479-3.138 1.793-.412.94-.918 1.848-1.41 2.758-.283.524-.167.695.501.692 3.847-.022 7.695-.01 11.542-.008 1.127 0 1.133.027.695.96-.966 2.051-2.641 3.06-5.117 3.012-1.935-.038-3.872-.008-5.809-.008zM26.723 13.842c.09-.238.272-.26.436-.308 2.774-.823 5.275-2.07 7.412-3.893.384-.328.724-.685.933-1.126.3-.628.032-1.004-.725-1.006-3.675-.006-7.35-.009-11.024.005-.623.003-1.16-.106-1.419-.658-.232-.49-.035-.909.382-1.274 1.344-1.185 2.93-2.07 4.455-3.036 2.334-1.471 4.861-1.92 7.669-1.774 2.87.151 5.758.03 8.64.037.226 0 .593-.119.644.16.053.295-.34.26-.552.327-2.795.89-5.355 2.143-7.474 4.056-.302.27-.582.558-.745.92-.287.639-.036 1.001.745 1.007 1.984.016 3.972.008 5.96.008 1.663 0 3.326.002 4.992-.003.63-.003 1.21.084 1.476.69.256.584-.105.99-.534 1.364-2.235 1.942-4.9 3.282-7.65 4.499-.254.11-.525.122-.802.122H27.4c-.218.008-.444.038-.677-.117zM62.484.81c2.856 0 5.708-.003 8.563 0 1.04 0 1.043.04.677.89-.93 2.159-2.677 3.149-5.204 3.084-.867-.022-1.738.014-2.605-.008-.486-.014-.76.14-.969.557-1.01 2.008-2.035 4.01-3.1 5.993-.917 1.707-2.422 2.636-4.553 2.641-1.016.003-2.036.005-3.052 0-.894-.005-.96-.081-.599-.793 1.29-2.535 2.596-5.065 3.904-7.592.412-.795.415-.8-.551-.8-2.16-.003-4.319.002-6.48-.006-.733-.003-.807-.124-.48-.7C49.268 1.9 51.259.835 53.923.814 56.774.79 59.629.81 62.485.81zM72.236 33.19c-2.31 0-4.62-.002-6.93 0-.476 0-.941-.046-1.385-.21-.617-.23-.94-.72-.805-1.242.519-2.038 1.276-3.986 3.195-5.339.754-.533 1.642-.714 2.59-.711 4.047.005 8.095-.017 12.145.016.715.005 1.114-.222 1.359-.793.26-.609.602-1.193.64-1.861.042-.742-.238-1.047-1.046-1.107-.42-.032-.843-.022-1.266-.022-3.776-.002-7.55.006-11.325-.013-.367-.003-.918.235-1.055-.328-.105-.432.694-1.382 1.13-1.423.172-.016.348-.008.52-.008h12.294c.322 0 .647-.005.97.027 1.457.144 2.118.836 2.056 2.162-.042.85-.367 1.629-.754 2.39-1.294 2.534-2.608 5.061-3.875 7.607-.304.615-.674.888-1.454.874-2.334-.046-4.667-.016-7.004-.019zm.086-1.547c1.938 0 3.872-.017 5.809.01.611.009.96-.197 1.201-.697.495-1.034 1.028-2.051 1.553-3.071.328-.636.31-.68-.46-.68-3.748-.002-7.495.017-11.244-.01-1.252-.008-2.125.433-2.73 1.426-.325.535-.605 1.087-.85 1.65-.437 1.012-.16 1.364 1.062 1.369 1.886.01 3.773.003 5.66.003zM103.568 27.362c1.076.815.888 1.716.444 2.636-.459.947-1.055 1.837-1.326 2.857-.125.476-.59.325-.933.33-1.195.019-1.314-.127-.855-1.11.378-.808.825-1.59 1.186-2.405.432-.974.14-1.385-.987-1.388-3.922-.013-7.844 0-11.769-.016-.527-.003-.814.195-1.02.617-.613 1.255-1.254 2.5-1.889 3.747-.247.487-1.537.812-1.99.49-.328-.233-.078-.506.032-.73.63-1.275 1.276-2.544 1.92-3.81 1.317-2.597 2.65-5.192 3.945-7.798.23-.46.528-.64 1.074-.638 4.741.013 9.483 0 14.225.013 1.788.006 2.426.831 1.877 2.384-.402 1.145-.983 2.221-1.702 3.222-.512.723-1.257 1.253-2.232 1.6zm-5.052-5.573c-1.96 0-3.922.003-5.88-.003-.39 0-.736.035-.927.414-.68 1.353-1.365 2.7-2.053 4.05-.164.322-.069.43.33.43 3.872-.016 7.744-.013 11.612-.024 1.058-.002 1.872-.435 2.39-1.26.492-.783.957-1.58 1.261-2.444.313-.895.119-1.155-.927-1.16-1.934-.009-3.871-.003-5.806-.003zM.22 13.8c.172-.315.533-.325.816-.423 2.2-.755 4.235-1.764 6.065-3.111.587-.433 1.04-.963 1.499-1.494.209-.24.283-.535.215-.833-.123-.525.19-.622.661-.622 3.651.002 7.302.005 10.95-.003.596-.003 1.001.23 1.23.712.236.492-.02.879-.399 1.206-1.886 1.63-4.089 2.833-6.354 3.972-1.26.633-2.542.768-3.928.755-3.302-.038-6.604-.01-9.906-.019-.278-.003-.593.09-.85-.14zM51.496 33.19c-1.91 0-3.824-.002-5.734 0-.474 0-.942-.032-1.401-.146-1.067-.265-1.66-1.03-1.523-2.029.077-.582.244-1.15.515-1.688.811-1.597 1.604-3.198 2.43-4.79.86-1.658 1.943-3.148 3.898-3.92.715-.281 1.448-.468 2.232-.468 4.047-.002 8.092-.005 12.139-.002.828 0 .796.054.545.776-.283.825-.822 1.02-1.716 1.01-3.6-.041-7.2.021-10.798-.033-1.91-.03-3.18.787-3.982 2.243-.962 1.753-1.824 3.552-2.712 5.338-.131.262-.212.555-.262.841-.102.558.17.915.778 1.045.485.103.977.138 1.478.138 3.6-.005 7.2-.003 10.798-.003 1.028 0 1.025.057.623.901-.293.617-.7.815-1.422.798-1.964-.038-3.925-.008-5.886-.01z"/>
    </g>
    <defs>
        <clipPath id="clip0">
            <path fill="#fff" d="M0 0H149.89V32.5H0z" transform="translate(.22 .75)"/>
        </clipPath>
    </defs>
</svg>
