<svg xmlns="http://www.w3.org/2000/svg" width="89" height="47" fill="none" viewBox="0 0 89 47">
    <g clip-path="url(#clip0)">
        <path fill="#5E5E5E" fill-rule="evenodd" d="M14.374 20.62l-4.04.232c0-1.329-.659-1.99-1.942-1.99-.502 0-.896.116-1.168.355-.312.231-.428.504-.428.858-.04.232.075.47.313.702.197.232.7.504 1.514.858 1.052.43 1.867.859 2.526 1.247.658.389 1.168.934 1.555 1.52.428.66.584 1.444.584 2.418-.041.9-.313 1.717-.774 2.494-.469.743-1.168 1.404-2.024 1.874-.855.504-2.098.742-3.653.742-2.18 0-3.728-.47-4.624-1.403-.937-.9-1.324-2.105-1.29-3.59v-.314l4.08-.314c-.04.934.116 1.601.503 1.99.353.43.856.586 1.555.586.7 0 1.202-.157 1.555-.47.387-.355.543-.702.625-1.131-.041-.314-.116-.586-.353-.859-.231-.272-.774-.586-1.63-.933-2.023-.818-3.3-1.56-3.81-2.221-.542-.702-.773-1.52-.74-2.494 0-.859.272-1.676.74-2.378.47-.702 1.128-1.288 1.984-1.717.896-.348 1.9-.586 3.069-.586 3.775 0 5.717 1.52 5.873 4.524zm14.687-4.252l-.74 3.312h-7.069l-.502 2.419h6.804l-.74 3.12H20.05l-.7 2.964h7.619l-.774 3.509H14.252l3.456-15.323h11.353zm2.682 0h6.41c.774 0 1.44.041 1.901.116.543.075 1.012.273 1.48.586.469.314.815.702 1.012 1.206.272.545.387 1.09.353 1.676 0 .777-.23 1.52-.658 2.222-.469.66-1.128 1.13-2.024 1.444v.048c1.44.504 2.18 1.56 2.098 3.236-.04 1.206-.502 2.303-1.473 3.311-.971.975-2.255 1.479-3.966 1.479h-8.555l3.422-15.323zm2.988 6.01h1.44c.658 0 1.126-.075 1.473-.198.353-.075.624-.272.855-.586.231-.313.353-.626.353-.933 0-.388-.115-.66-.312-.9-.23-.197-.659-.313-1.358-.313h-1.827l-.624 2.93zm-1.399 6.003h2.329c1.596 0 2.451-.586 2.485-1.758 0-.43-.115-.784-.353-1.015-.23-.232-.658-.355-1.399-.355h-2.329l-.733 3.128zm13.485-12.012h7.924c1.358 0 2.33.388 2.954 1.171.584.777.896 1.758.855 2.848-.074 1.206-.427 2.262-1.127 3.162-.7.858-1.752 1.444-3.266 1.676.856.818 1.827 2.964 2.913 6.473h-4.55c-.346-1.131-.74-2.303-1.201-3.666-.51-1.288-.815-2.03-1.087-2.262-.23-.232-.583-.313-.93-.313h-.23l-1.4 6.24h-4.277l3.422-15.33zm2.92 6.24h.815c1.358 0 2.254-.074 2.641-.197.428-.157.74-.388.93-.743.197-.354.313-.627.313-.933.04-.43-.082-.702-.313-.934-.23-.231-.74-.354-1.514-.354h-2.18l-.692 3.162zm22.305 9.083h-4.237l-.115-2.535H63.18l-1.168 2.535H57.39l8.318-15.323h4.583l1.752 15.323zm-4.508-5.771l-.272-5.573h-.04l-2.567 5.573h2.879zm20.825-9.552l-.74 3.31h-7.035l-.543 2.42h6.804l-.74 3.12h-6.763l-.7 2.964h7.653l-.774 3.509H73.59l3.422-15.323h11.346zM35.28.5h26.428L60.58 6.073H34.072L35.281.5zm-1.676 7.679h26.542l-1.168 5.614H32.402l1.202-5.614zm-5.358 25.23H54.98l-1.168 5.614H27.038l1.208-5.614zm-1.67 7.72H53.39l-1.168 5.614H25.367l1.209-5.614z" clip-rule="evenodd"/>
    </g>
    <defs>
        <clipPath id="clip0">
            <path fill="#fff" d="M0 0H87.436V46.25H0z" transform="translate(.923 .5)"/>
        </clipPath>
    </defs>
</svg>
