<svg width="134" height="36" viewBox="0 0 134 36" fill="none" xmlns="http://www.w3.org/2000/svg">
<path d="M51.5163 31.1688H45.6649L40.6976 21.5003H39.5663V31.1688H34.3151V4.37976H44.3218C45.5467 4.37976 46.632 4.72623 47.5745 5.42064C48.5169 6.11358 49.266 7.01232 49.8202 8.11539C50.3743 9.21845 50.6506 10.4341 50.6506 11.7651V14.1016C50.6506 14.7604 50.5739 15.4549 50.4204 16.1818C49.9967 18.2059 49.0941 19.6998 47.7157 20.6667C47.1968 21.0309 46.7839 21.2574 46.4785 21.3492L51.5163 31.1688ZM44.3202 16.5713C44.4968 16.5713 44.7209 16.3669 44.9926 15.9568C45.2643 15.5481 45.3994 14.9278 45.3994 14.0986V11.7622C45.3994 10.819 45.0755 10.052 44.4277 9.4598C44.3095 9.34579 44.1268 9.28953 43.8797 9.28953H39.5479L39.5663 16.5713H44.3202Z" fill="#68C659"/>
<path d="M72.9635 31.1688H59.5813V4.37976H72.9635V9.28953H64.8141V15.3098H71.7785V20.2373H64.8141V26.2575H72.9635V31.1688Z" fill="#68C659"/>
<path d="M99.0602 31.1687H93.9332L86.3319 16.8096V31.1687H81.0453V4.36194H86.1722L93.792 18.7877V4.37971H99.0786L99.0602 31.1687Z" fill="#68C659"/>
<path d="M126.483 31.1851H121.109L117.026 12.6491L112.924 31.1851H107.532L113.472 4.39606H120.561L126.483 31.1851Z" fill="#68C659"/>
<path d="M134 36H0V0H134V36ZM2.48518 33.6014H131.515V2.39714H2.48518V33.6014Z" fill="#68C659"/>
<path d="M26.2148 31.1851H20.8393L16.7561 12.6491L12.6546 31.1851H7.26211L13.2026 4.39606H20.2913L26.2148 31.1851Z" fill="#68C659"/>
</svg>
