<svg xmlns="http://www.w3.org/2000/svg" width="101" height="44" fill="none" viewBox="0 0 101 44">
    <path fill="#5E5E5E" fill-rule="evenodd" d="M13.838 8.568h6.612c1.719 0 3.125 1.408 3.125 3.129v5.748c0 .414-.346.66-.346.66l-1.594 1.236s1.292.904 1.606 1.08c.314.176.334.829.334.829v5.386c0 1.72-1.406 3.128-3.125 3.128h-6.612V8.568zm4.314-6.779h75.806v34.958h-21.06c.05-.16.092-.323.117-.477h20.492V2.266H7.129V36.27h65.886l-.118.477H6.677V1.79h11.474zm-.608 10.385h1.443c.476 0 .866.39.866.867v3.741c0 .477-.39.867-.866.867h-1.443v-5.475zm0 8.538h1.443c.476 0 .866.39.866.867v3.742c0 .476-.39.866-.866.866h-1.443v-5.475zm7.989-12.144h6.952c1.532 0 2.785 1.254 2.785 2.787v6.09c0 .414-.347.66-.347.66l-1.594 1.236s1.5.904 1.813 1.08c.314.176.335.829.335.829v8.514H31.66v-8.081c0-.513-.42-.933-.932-.933h-1.553v9.014h-3.642V8.568zm3.642 3.606h1.443c.477 0 .866.39.866.867v3.741c0 .477-.39.867-.866.867h-1.443v-5.475zM39.76 8.568h5.047l2.908 21.196H44l-.403-3.667h-2.63l-.402 3.667H36.85L39.76 8.568zm2.523 5.579l-.91 8.283h1.821l-.91-8.283zm13.415-5.579h3.714v21.196h-3.714V20.27h-3.012v9.494h-3.714V8.568h3.715v8.237h3.01V8.568zm5.721 0h4.944L68.57 18.2l2.208-9.63h4.856v21.195h-3.638V15.816l-2.439 13.948h-1.974l-2.526-14.449v14.45h-3.639V8.567zm18.522 0h5.047l2.908 21.196h-3.714l-.403-3.667h-2.63l-.402 3.667H77.03L79.94 8.568zm2.523 5.579l-.91 8.283h1.821l-.91-8.283zM1.552 9.51h4.354v.565H2.204v32.27h13.448l-7.81-5.035h.999l6.864 4.364V37.31h.653v5.601H1.552V9.511zm97.532 0H94.73v.565h3.701v32.27H84.984l7.81-5.035h-1l-6.864 4.364V37.31h-.653v5.601h14.807V9.511z" clip-rule="evenodd"/>
</svg>
