<svg xmlns="http://www.w3.org/2000/svg" width="103" height="39" fill="none" viewBox="0 0 103 39">
    <g fill="#5E5E5E" clip-path="url(#clip0)">
        <path fill-rule="evenodd" d="M7.49 25.644c5.37-2.555 6.98 5.995 3.428 8.207-3.2 1.985-6.535-1.543-5.255-6.025.403-1.405.93-1.75 1.827-2.172v-.01zm5.003-3.435c-2.21-2.27-6.283-2.196-8.978-.27-4.625 3.322-4.79 12.246.125 15.686 3.417 2.388 6.199 1.265 9.234-.346l.03 1.437 5.028-.05-.041-17.838-4.987.039c-.134.275-.072 1.268-.145 1.435-.433.884.248.211-.263-.093h-.003z" clip-rule="evenodd"/>
        <path stroke="#5E5E5E" stroke-width=".122" d="M12.561 22.688c.023-.011.047.022.069.016.011 0 .017-.01.029-.016.018-.006.03 0 .047 0 .04.005.046.016.023.063-.004.005-.047.005-.052.005-.035 0-.012.006-.035-.022-.004-.006-.012-.006-.012-.006-.003-.01.011-.027.017-.033.004-.011.005-.022.012-.028.012-.01.067-.005.08 0l-.005.058c-.017 0-.017-.006-.04 0-.007 0-.012.005-.018 0-.012-.006-.018-.011-.023-.017-.012 0-.024 0-.018.006.002 0 .005-.006.006 0 .002 0 .002.006.004.006.005-.006.006-.012.012-.017H12.703c.003.07-.018.033.011.05h-.005c-.018 0-.03.005-.047 0-.012-.006-.018-.017-.03-.017-.023-.006-.046.028-.068.017v-.059l-.003-.006zM12.61 22.57c.005 0 .011.006.017.012h.115c.023 0 .035-.005.011.039h-.046c-.023.011-.04-.028-.064-.028-.006 0-.012.006-.018.006-.005 0-.011.005-.023.005-.03-.022-.047-.062-.012-.087.006-.006.018-.006.024-.011.005 0 .017-.006.023 0 .006.005.023.033.04.021.03-.016.007-.033.048-.022.052.023-.012.07-.036.056-.005-.005-.011-.016-.017-.022-.018-.01-.04.022-.047.028-.04 0-.081-.033-.046-.073.004-.006.011-.006.017-.011.005 0 .041-.012.047-.012.011.006.011.028.029.023.012 0 .012-.023.017-.028h.047c.053 0 .1.059.023.079-.011 0-.068.005-.072-.006-.03-.056.005-.017-.005-.028 0-.01-.004-.022.002-.027.005-.006.072.005.082.005l-.012.058c-.006 0-.052-.006-.058-.012-.005-.005-.006-.016-.012-.027.006.01-.004-.006.012-.023.003-.005.04.006.052 0 .018 0-.006 0-.006.028 0 .006.006.011.012.017h.002c-.006-.006-.012-.006-.018-.006l-.034-.006c-.012-.005-.012-.027-.024-.027-.011 0-.006.022-.017.033-.006.006-.018 0-.024.005-.011 0 .012-.027-.017-.027 0 0 0 0 0 0h.012c.006.005.035.039.047.027.006-.005.006-.016.011-.027.012-.011.098 0 .012.05.006 0 0 0-.004-.006-.006-.01-.006-.022-.012-.027-.017-.017-.029.022-.035.027-.003.006-.011.006-.011.006h-.005s-.005-.029.001-.006c0 .022.003.05.035.039.006 0 .012-.012.018-.012h.064c.023.045.011.04-.012.04h-.115c-.006 0-.011.005-.017.01v-.055l-.001.002z"/>
        <path fill-rule="evenodd" d="M25.477 38.676c.371-3.086-1.663-14.81 3.283-13.514 3.871 1.023-.176 10.29 3.097 13.554l5.245-.099c-1.745-3.253-1.311-2.88-1.322-7.056 0-2.438-.475-6.438 2.633-6.438 4.946 0-.093 10.359 4.006 13.583l5.276-.05c-3.407-3.44-.547-9.278-2.055-14.3-.568-1.887-2.271-3.568-4.76-3.804-3.427-.324-4.243.757-6.111 2.231-1.219-.884-1.787-2.093-4.399-2.24-2.385-.138-4.009.585-5.114 1.784l-.04-1.221c-.024-.128-.06-.18-.122-.268l-4.842.068.125 17.819 5.1-.04v-.009zM55.964 25.693c5.43-2.82 6.866 6.526 3.18 8.295-2.736 1.307-4.605-.767-5.152-2.644-.558-1.897-.217-4.511 1.972-5.651zm-2.152 11.82c2.425 1.842 7.087 1.91 9.503-.242 5.049-4.521 4.068-12.61-.64-15.617-3.593-2.29-6.143-.826-8.683.629l-.04-7.784-5.287.088.134 24.138 4.88.028c.135-1.246.002.011 0 .017l.133-1.257z" clip-rule="evenodd"/>
        <path fill-rule="evenodd" d="M73.31 27.904c.816-4.304 5.647-4.226 6.267.012l-6.267-.012zm10.696 5.062c-3.459 1.19-9.344 3.489-10.706-1.337l11.553-.206c.227-5.08-1.373-8.963-5.142-10.418-9.942-3.832-16.055 10.015-8.683 15.902 3.097 2.477 9.086 2.949 12.328.334.516-1.012.62-2.781.64-4.275h.01zM102.415 20.848l-5.576.098-3.582 11.568-3.47-11.676-5.513.011c.176 1.524 5.431 16.55 6.216 17.858l5.802.028 6.133-17.877-.01-.01z" clip-rule="evenodd"/>
        <path d="M79.58 4.609h-.007c-.134.138-3.385 4.917-3.36 4.94.019.017.285.106.592.199l.626.189c.05.015.145-.102.367-.45.165-.258.314-.478.33-.488.027-.017 1.683.479 1.716.513.008.009-.003.27-.022.583-.02.312-.032.571-.026.575.005.005.307.101.671.215.364.113.683.207.71.208.058.003.077-.399.164-3.534.037-1.326.05-2.39.03-2.41-.061-.058-1.662-.54-1.79-.54zm.483 1.412c.01.01-.015.527-.054 1.15-.04.625-.082 1.146-.096 1.16-.033.035-1.12-.3-1.121-.344 0-.05 1.25-1.986 1.27-1.966zM23.344 10.324c-1.01-.134-1.85-.894-2.23-2.018-.216-.64-.261-1.142-.152-1.7.238-1.224 1.354-2.097 2.9-2.27.637-.07.622-.074.716.173l.186.483.103.27-.425.047c-1.023.113-1.641.427-1.91.97-.324.65-.063 1.793.546 2.4.22.22.29.263.554.342.368.11.69.094 1.182-.06.39-.121.75-.327 1.093-.625l.247-.215.027.144c.093.486-.105 1.046-.49 1.388-.525.467-1.59.771-2.347.671zM73.819 8.902c-.334-.081-.618-.158-.63-.17-.022-.023 1.315-5.526 1.35-5.56.02-.02 1.307.287 1.34.319.01.011-.285 1.264-.66 2.784-.48 1.955-.695 2.766-.736 2.77-.031.003-.33-.061-.664-.143zM28.047 6.204c-.382-1.525-.687-2.78-.679-2.789.044-.043 4.064-.991 4.09-.964.055.06.254.995.218 1.028-.02.018-.627.174-1.35.347-.957.23-1.313.33-1.313.372 0 .056.25 1.082.27 1.107.006.007.464-.097 1.018-.23.555-.134 1.044-.25 1.088-.257.07-.013.096.05.212.505.073.286.118.53.1.54-.019.012-.495.132-1.058.267-.563.135-1.037.253-1.052.263-.023.014.23 1.154.261 1.185.005.004.633-.143 1.395-.328.763-.185 1.392-.332 1.398-.328.006.005.055.249.108.543.088.483.09.535.03.552-.203.057-3.964.96-4 .96-.022 0-.354-1.247-.736-2.773zM70.476 8.16c-.124-.021-.322-.082-.438-.135-.46-.207-.664-.543-.985-1.618-.24-.803-.323-1.022-.5-1.31l-.142-.232h.282c.724 0 1.16-.374 1.16-.995 0-.291-.14-.5-.438-.648-.157-.078-.938-.236-.975-.197-.016.015-.215 1.034-.445 2.263-.229 1.23-.425 2.245-.436 2.256-.022.021-1.208-.185-1.31-.228-.058-.025-.003-.365.458-2.827.287-1.539.531-2.805.541-2.813.04-.033 2.439.424 2.763.526.562.177.988.5 1.216.92.083.153.095.233.095.643 0 .422-.01.49-.109.692-.236.488-.682.802-1.206.852l-.257.024.132.093c.202.142.487.598.774 1.241.36.807.563 1.107.871 1.296l.123.075-.163.067c-.198.082-.703.109-1.011.055zM35.2 7.497c-.022-.068-.972-5.403-.984-5.522-.01-.1-.008-.1 1.21-.315 1.414-.248 1.906-.276 2.367-.136.536.163.872.485 1.032.991.23.731-.055 1.479-.689 1.805-.232.12-.283.177-.154.178.175 0 .564.292 1.169.876.672.65.938.849 1.23.922.097.024.176.059.176.078 0 .047-.317.251-.517.333-.292.12-.53.165-.869.166-.597.001-.833-.177-1.663-1.258-.475-.617-.696-.856-.985-1.066-.068-.05-.102-.09-.074-.091.153-.004.532-.193.72-.359.256-.227.327-.376.326-.69-.004-.561-.352-.868-.927-.812-.512.05-.77.112-.77.187 0 .038.178 1.051.394 2.251.216 1.2.393 2.2.393 2.222 0 .023-.181.072-.403.111-.222.04-.53.094-.686.123-.21.039-.286.04-.297.006zM61.41.85c-.05-.014-.325.583-1.254 2.736-.655 1.514-1.182 2.761-1.172 2.771.033.033 1.33.168 1.358.141.014-.014.116-.259.227-.544.137-.353.222-.519.264-.517.18.006 1.697.188 1.715.206.012.011.057.264.102.562.044.297.09.55.103.563.012.012.297.053.634.092.776.09.839.093.839.03 0-.052-.938-5.604-.972-5.755-.018-.079-.08-.091-.9-.177-.484-.05-.909-.1-.944-.109zm.697 1.286c.005 0 .007.015.007.044 0 .035.067.552.147 1.149.08.596.144 1.103.144 1.127 0 .023-.042.04-.093.037-.16-.009-1.083-.122-1.096-.134-.014-.014.801-2.082.859-2.179.017-.029.027-.044.032-.044zM43.068 6.382c-.157-.304-2.313-5.39-2.293-5.41.012-.012.37-.06.796-.107.59-.065.781-.074.804-.037.017.027.383 1.01.813 2.186.512 1.397.793 2.112.811 2.065.016-.04.17-1.069.343-2.288.174-1.219.323-2.228.333-2.243.022-.036 1.421-.183 1.452-.152.024.023-1.1 5.787-1.14 5.85-.013.02-.395.074-.85.122-.455.049-.87.097-.92.107-.069.015-.106-.008-.15-.093zM55.304 6.126c-.39-.151-.638-.476-.694-.91-.024-.19-.022-.197.068-.172.613.172.718.18.966.069.302-.135.302-.137.399-2.57.046-1.175.086-2.14.089-2.141.023-.02 1.35.052 1.373.075.054.053-.14 4.337-.21 4.623-.12.495-.37.831-.735.99-.312.134-.956.153-1.256.036zM48.445 5.71c-.013-.185-.035-1.477-.049-2.871L48.371.304h1.052c.578 0 1.53-.012 2.114-.027L52.599.25v1.113h-.594c-.326 0-.96.012-1.407.026l-.813.027v.513c0 .282.012.553.025.602l.024.089 1.113-.024 1.113-.024v1.112h-.863c-.474 0-.977.012-1.117.026l-.254.026V4.96l1.448-.027 1.448-.027V5.992l-.9.027c-.495.015-1.452.027-2.127.027h-1.227l-.024-.336z"/>
    </g>
    <defs>
        <clipPath id="clip0">
            <path fill="#fff" d="M0 0H102.425V38.75H0z" transform="translate(0 .25)"/>
        </clipPath>
    </defs>
</svg>
