<svg xmlns="http://www.w3.org/2000/svg" width="80" height="50" fill="none" viewBox="0 0 80 50">
    <g clip-path="url(#clip0)">
        <path fill="#5E5E5E" d="M26.71 7.588c1.051.013 1.533-.353 1.488-1.464-.058-1.456-.06-2.917 0-4.37.048-1.112-.41-1.465-1.475-1.46C20.41.326 14.091.26 7.774.332 2.182.395-2.63 3.817-4.695 8.972c-.308.767-.221 1.215.564 1.568 1.24.56 2.457 1.175 3.658 1.812.704.373 1.062.198 1.454-.491 1.952-3.435 4.834-4.806 8.714-4.262.682.095 1.03.379 1.021 1.095-.013 1.103.006 2.21.008 3.313 0 7.686.014 15.372-.01 23.056-.003 1.053.205 1.716 1.443 1.63.962-.066 1.928-.007 2.895-.012 1.739-.008 1.804-.064 1.807-1.77.005-4.24.003-8.481.003-12.72 0-4.283.044-8.569-.027-12.852-.02-1.326.4-1.812 1.723-1.78 2.713.069 5.434-.005 8.152.03zM73.516 16.715c-2.587.053-5.176.026-7.765.01-1.48-.008-1.662-.268-1.346-1.758.993-4.647 4.227-7.355 9.277-7.673.998-.064 1.427-.382 1.39-1.419-.055-1.501-.052-3.005 0-4.506.037-1.053-.405-1.427-1.414-1.363-4.027.257-7.686 1.474-10.573 4.408-3.55 3.61-5.023 8.089-5.025 13.112 0 5.61.031 11.222-.019 16.831-.031 3.536-.922 6.745-3.943 8.965-.548.4-.53.828-.308 1.38.59 1.474 1.196 2.943 1.72 4.442.355 1.018.837 1.058 1.644.488 2.323-1.645 3.977-3.82 5.188-6.384 1.8-3.806 1.836-7.859 1.72-11.938 0-1.899.035-3.8-.013-5.697-.029-1.167.382-1.67 1.607-1.642 2.673.064 5.352-.008 8.028.03 1.022.013 1.425-.38 1.389-1.409-.05-1.456-.069-2.917.005-4.37.058-1.197-.456-1.531-1.562-1.507zM54.662 27.73c-.024-1.547 0-3.093.023-4.64.016-1.002-.445-1.45-1.443-1.426-1.14.026-2.281.005-3.424 0-2.144-.01-2.147-.01-2.147-2.104-.002-5.922-.018-11.844.013-17.767C47.69.724 47.352.242 46.246.297c-1.183.059-2.37.04-3.553.003-.825-.027-1.407.292-1.902.95-6.606 8.818-13.225 17.626-19.834 26.442-.197.263-.613.507-.371.9.208.336.637.225.977.225 3.071.008 6.145.005 9.216.005v.01c3.072 0 6.146.022 9.217-.01 1.093-.01 1.604.355 1.551 1.541-.074 1.676.005 3.358-.024 5.037-.015.886.314 1.315 1.23 1.291 1.228-.032 2.458-.032 3.688 0 .914.024 1.251-.395 1.235-1.283-.031-1.68.053-3.36-.023-5.037-.056-1.188.466-1.567 1.549-1.544 1.448.032 2.897-.013 4.346.003.758.005 1.127-.292 1.114-1.1zm-14.326-6.093c-1.755-.003-3.509.016-5.26 0-.878-.008-1.123-.384-.559-1.135 2.039-2.71 4.077-5.421 6.119-8.126.155-.205.326-.494.613-.412.393.114.274.512.277.796.018 1.281.008 2.562.005 3.84-.002 1.236-.031 2.475.008 3.708.032.884-.31 1.332-1.203 1.33z"/>
    </g>
    <defs>
        <clipPath id="clip0">
            <path fill="#fff" d="M0 0H79.941V50H0z" transform="translate(.059)"/>
        </clipPath>
    </defs>
</svg>
