<svg xmlns="http://www.w3.org/2000/svg" width="62" height="50" fill="none" viewBox="0 0 62 50">
    <g fill="#5E5E5E" clip-path="url(#clip0)">
        <path d="M19.155 48.178c-.127.035-.692.089-.966.089-1.039 0-1.604-.304-1.604-1.019 0-.714.565-1 1.604-1 .346 0 .748.036.966.054v1.876zm-1.367-6.646c-.893-.018-1.677.089-2.443.268-.146.5-.128 1.232 0 1.75.948-.214 1.477-.232 2.078-.232 1.167 0 1.732.465 1.732 1.411v.09c-.346-.036-.765-.072-1.057-.072-1.933 0-3.592.68-3.592 2.502 0 2.054 1.495 2.75 3.665 2.75 1.02 0 2.133-.178 3.154-.482V44.89c0-2.215-1.221-3.305-3.537-3.358zM13.613 41.639c-1.076 0-1.696.41-2.279 1.143-.055-.375-.128-.679-.255-1.054-.219-.071-.602-.09-.93-.09-.31 0-.711.036-.912.09v8.093c.274.072.73.09 1.13.09.383 0 .894-.036 1.131-.09v-3.948c0-1.572.839-2.412 1.97-2.412.2 0 .546 0 .747.036.127-.518.146-1.269.036-1.787-.127-.036-.456-.071-.638-.071zM3.33 48.195c-.237 0-.602 0-.857-.089v-4.448c.31-.161.748-.25 1.313-.25 1.13 0 1.732.768 1.732 2.215 0 1.518-.711 2.573-2.188 2.572zm.839-6.628c-.657 0-1.295.143-1.696.34V37.94c-.638.232-1.313.553-1.878 1-.291.232-.383.465-.383.804v9.79c.602.25 1.824.465 2.99.465 2.954 0 4.65-1.769 4.65-4.324 0-2.537-1.204-4.109-3.683-4.109zM27.907 48.07c-.383.108-.657.125-.967.125-1.495 0-2.078-.964-2.078-2.358 0-1.554.583-2.501 2.06-2.501.438 0 .711.054.985.125v4.61zm0-8.325v1.947c-.401-.107-.82-.125-1.185-.125-2.498 0-4.194 1.644-4.194 4.27 0 2.68 1.66 4.163 4.248 4.163 1.186 0 2.352-.161 3.392-.5V37.94c-.639.233-1.313.554-1.878 1.001-.292.232-.383.465-.383.804zM44.079 45.015l-.912-.375c-.529-.214-.839-.393-.839-.732 0-.518.474-.626 1.094-.626.62 0 1.258.072 2.133.34.11-.59.11-1.144 0-1.662-.547-.286-1.568-.428-2.46-.428-1.751 0-3.082.929-3.082 2.322 0 1.25.547 1.876 2.078 2.483l.711.286c.675.268.876.429.876.858 0 .643-.657.75-1.204.75-.911 0-1.604-.179-2.48-.482-.145.518-.145 1.197 0 1.733.748.393 1.77.518 2.845.518 1.732 0 3.117-.894 3.117-2.501 0-1.323-.583-1.948-1.877-2.484zM51.116 48.178c-1.13 0-1.878-.876-1.878-2.412 0-1.465.602-2.412 1.896-2.412.547 0 .93.09 1.44.286.146-.5.42-1.072.803-1.555-.711-.357-1.404-.553-2.535-.553-2.497 0-3.938 1.733-3.938 4.234 0 2.59 1.477 4.234 4.03 4.234.93 0 1.786-.161 2.48-.536-.31-.393-.657-.93-.858-1.554-.638.25-.911.268-1.44.268zM57.443 48.213c-1.258 0-1.641-1-1.641-2.43 0-1.393.383-2.465 1.64-2.465 1.295 0 1.66 1.036 1.66 2.465 0 1.501-.42 2.43-1.66 2.43zm0-6.681c-2.535 0-3.957 1.697-3.957 4.252 0 2.59 1.495 4.216 3.957 4.216 2.552 0 3.974-1.662 3.974-4.217 0-2.572-1.422-4.252-3.974-4.252zM33.668 44.8c.164-.982.766-1.571 1.677-1.571 1.022 0 1.422.679 1.46 1.572h-3.137zm1.714-3.268c-2.443 0-3.938 1.607-3.938 4.287 0 2.68 1.586 4.18 4.303 4.18.93 0 1.932-.16 2.57-.464.128-.518.128-1.197 0-1.715-.838.232-1.55.375-2.334.375-1.257 0-2.133-.464-2.315-1.768h5.142c.072-.197.09-.858.09-1.126 0-2.412-1.385-3.77-3.518-3.77zM29.854 7.056c-2.055 0-4.302.185-6.522.555 2.247-2.827 5.81-4.65 9.783-4.65 2.932 0 5.864 1.084 7.837 2.695.356.29.63.317.904.053.275-.264.247-.528-.054-.872C39.226 1.905 35.444-.077 30.977.002 25.142.108 20.181 3.728 18.29 8.747c-1.726.529-3.316 1.163-4.713 1.929-.384.211-.521.476-.384.793.137.29.411.396.795.29 1.205-.343 2.439-.634 3.727-.898-.138.66-.22 1.347-.22 2.06-.11 4.624 2.412 9.01 6.303 11.414.384.238.712.238.932-.053.219-.29.191-.555-.137-.845-2.467-2.167-3.837-5.39-3.837-8.587 0-1.611.329-3.17.96-4.57 1.287-.106 2.685-.185 4.22-.185 9.974 0 18.387 3.223 18.387 7.45 0 2.14-2.768 4.28-6.056 5.707-.795.343-.877.581-.768.925.11.317.466.422.877.29 5.755-1.85 10.112-4.888 10.112-8.56 0-4.993-8.22-8.85-18.634-8.85z"/>
        <path d="M34.617 32.454V21.757c0-.41-.403-.56-.737-.374l-2.775 1.565V32.97l2.981.004c.294 0 .531-.232.531-.52zM27.727 25.241v7.398c0 .185.153.335.342.335h2.1v-9.499l-2.097 1.183c-.213.12-.345.307-.345.583z"/>
    </g>
    <defs>
        <clipPath id="clip0">
            <path fill="#fff" d="M0 0H61.205V50H0z" transform="translate(.212)"/>
        </clipPath>
    </defs>
</svg>
