<svg width="122" height="32" viewBox="0 0 170 32" fill="none" xmlns="http://www.w3.org/2000/svg">
<path fill-rule="evenodd" clip-rule="evenodd" d="M78.0514 6.66633V9.33344C78.0514 9.57906 77.8469 9.77663 77.5988 9.77663H74.8756C74.6248 9.77663 74.423 9.57639 74.423 9.33344V6.66633C74.423 6.42071 74.6275 6.22314 74.8756 6.22314H77.5988C77.8469 6.22314 78.0514 6.42071 78.0514 6.66633Z" fill="#034EA2"/>
<path fill-rule="evenodd" clip-rule="evenodd" d="M58.0833 22.2205V23.9985C58.0833 24.9757 57.2655 25.7766 56.2678 25.7766H54.4522H43.5618H41.7463C40.7485 25.7766 39.9307 24.9757 39.9307 23.9985V22.2205V9.77661V7.99853C39.9307 7.02139 40.7485 6.22046 41.7463 6.22046H43.5618H54.4522H56.2678C57.2655 6.22046 58.0833 7.02139 58.0833 7.99853V9.77661V11.1088C58.0833 11.3544 57.8788 11.552 57.6308 11.552H54.9075C54.6567 11.552 54.455 11.3518 54.455 11.1088V10.2198C54.455 9.97417 54.2505 9.77661 54.0024 9.77661H44.0198C43.769 9.77661 43.5672 9.97684 43.5672 10.2198V21.7746C43.5672 22.0202 43.7717 22.2178 44.0198 22.2178H54.0024C54.2532 22.2178 54.455 22.0176 54.455 21.7746V20.8856C54.455 20.6399 54.6594 20.4424 54.9075 20.4424H57.6308C57.8816 20.4424 58.0833 20.6426 58.0833 20.8856V22.2205Z" fill="#034EA2"/>
<path fill-rule="evenodd" clip-rule="evenodd" d="M60.8066 13.3595V11.5547C60.8066 10.5775 61.6244 9.77661 62.6221 9.77661H64.3286H64.4376H71.2445C71.4953 9.77661 71.697 9.97684 71.697 10.2198V12.8869C71.697 13.1325 71.4926 13.3301 71.2445 13.3301H64.8902C64.6394 13.3301 64.4376 13.5303 64.4376 13.7733V25.3281C64.4376 25.5737 64.2332 25.7713 63.9851 25.7713H61.2618C61.011 25.7713 60.8093 25.571 60.8093 25.3281V13.3595H60.8066Z" fill="#034EA2"/>
<path fill-rule="evenodd" clip-rule="evenodd" d="M129.783 16.1681V17.778C129.783 18.7551 128.965 19.556 127.967 19.556H126.261H126.152H119.345C119.094 19.556 118.893 19.7563 118.893 19.9992V21.7773C118.893 22.0229 119.097 22.2205 119.345 22.2205H129.328C129.579 22.2205 129.78 22.4207 129.78 22.6637V25.3308C129.78 25.5764 129.576 25.774 129.328 25.774H118.89H118.781H117.074C116.077 25.774 115.259 24.973 115.259 23.9959V22.2178V13.3328V13.2046V11.5574C115.259 10.5802 116.077 9.7793 117.074 9.7793H118.781H118.89H126.149H126.258H127.965C128.962 9.7793 129.78 10.5802 129.78 11.5574V13.2206V13.3354V16.0026V16.1681H129.783ZM119.345 15.9999H125.699C125.95 15.9999 126.152 15.7997 126.152 15.5567V13.776C126.152 13.5303 125.948 13.3328 125.699 13.3328H119.345C119.094 13.3328 118.893 13.533 118.893 13.776V15.554C118.893 15.7997 119.094 15.9999 119.345 15.9999Z" fill="#58B0E3"/>
<path fill-rule="evenodd" clip-rule="evenodd" d="M112.538 22.2205V23.9985C112.538 24.9757 111.72 25.7766 110.723 25.7766H109.016H108.907H101.648H101.539H99.8323C98.8346 25.7766 98.0168 24.9757 98.0168 23.9985V22.2205V13.3328V11.5547C98.0168 10.5776 98.8346 9.77662 99.8323 9.77662H101.539H101.648H108.455C108.706 9.77662 108.907 9.57639 108.907 9.33344V6.66633C108.907 6.42071 109.112 6.22314 109.36 6.22314H112.083C112.334 6.22314 112.536 6.42338 112.536 6.66633V9.77662V11.5547V12.4437V13.3328V15.1108V20.4451V21.537V22.2205H112.538ZM108.907 15.1108V13.776C108.907 13.5303 108.703 13.3328 108.455 13.3328H102.1C101.85 13.3328 101.648 13.533 101.648 13.776V21.7746C101.648 22.0202 101.852 22.2178 102.1 22.2178H108.455C108.706 22.2178 108.907 22.0176 108.907 21.7746V21.5343V20.4424V15.1108Z" fill="#58B0E3"/>
<path fill-rule="evenodd" clip-rule="evenodd" d="M95.2935 13.3328V11.5547C95.2935 10.5775 94.4757 9.77661 93.478 9.77661H91.6624H84.403H82.135C81.8842 9.77661 81.6825 9.97684 81.6825 10.2198V12.8869C81.6825 13.1325 81.8869 13.3301 82.135 13.3301H84.403H91.2099C91.4607 13.3301 91.6624 13.5303 91.6624 13.7733V15.5513C91.6624 15.797 91.458 15.9945 91.2099 15.9945H84.403H82.5875C81.5898 15.9945 80.772 16.7955 80.772 17.7726V19.5507V22.2178V23.9959C80.772 24.973 81.5898 25.7739 82.5875 25.7739H84.403H91.6624H94.8382C95.089 25.7739 95.2908 25.5737 95.2908 25.3308V13.3328H95.2935ZM84.403 21.7773V19.9992C84.403 19.7536 84.6075 19.556 84.8556 19.556H91.2072C91.458 19.556 91.6597 19.7563 91.6597 19.9992V21.7773C91.6597 22.0229 91.4552 22.2205 91.2072 22.2205H84.8556C84.6075 22.2205 84.403 22.0202 84.403 21.7773Z" fill="#034EA2"/>
<path fill-rule="evenodd" clip-rule="evenodd" d="M147.025 13.3328V11.5547C147.025 10.5775 146.207 9.77661 145.21 9.77661H143.476H143.394H136.135H136.026H134.319C133.321 9.77661 132.504 10.5775 132.504 11.5547V13.258V13.3328V22.2205V22.3273V23.9985C132.504 24.9757 133.321 25.7766 134.319 25.7766H136.026H136.135H143.394H143.607H145.21C146.207 25.7766 147.025 24.9757 147.025 23.9985V22.2205V20.8882C147.025 20.6426 146.821 20.4451 146.573 20.4451H143.849C143.598 20.4451 143.397 20.6453 143.397 20.8882V21.7773C143.397 22.0229 143.192 22.2205 142.944 22.2205H136.59C136.339 22.2205 136.137 22.0202 136.137 21.7773V13.7759C136.137 13.5303 136.342 13.3328 136.59 13.3328H142.944C143.195 13.3328 143.397 13.533 143.397 13.7759V14.665C143.397 14.9106 143.601 15.1082 143.849 15.1082H146.573C146.823 15.1082 147.025 14.9079 147.025 14.665V13.3328Z" fill="#58B0E3"/>
<path fill-rule="evenodd" clip-rule="evenodd" d="M154.347 21.7159L153.51 22.5355C153.423 22.6209 153.377 22.7277 153.377 22.8505V25.3334C153.377 25.5791 153.172 25.7766 152.924 25.7766H150.204C149.953 25.7766 149.751 25.5764 149.751 25.3334V21.3314V6.66633C149.751 6.42071 149.956 6.22314 150.204 6.22314H152.927C153.178 6.22314 153.379 6.42338 153.379 6.66633V16.5659C153.379 16.7501 153.486 16.9049 153.66 16.977C153.832 17.0464 154.023 17.0117 154.154 16.8809L159.003 12.1367C159.09 12.0513 159.199 12.0059 159.322 12.0059L163.171 12.0006C163.359 12.0006 163.52 12.1047 163.591 12.2755C163.662 12.4464 163.627 12.6306 163.493 12.7614L157.556 18.5762C157.378 18.7498 157.378 19.0328 157.556 19.2036L160.107 21.7025L163.496 25.0211C163.629 25.1519 163.665 25.3361 163.594 25.5043C163.523 25.6752 163.362 25.7793 163.174 25.7793H159.325C159.199 25.7793 159.093 25.7366 159.003 25.6485L157.542 24.2175L154.991 21.7186C154.813 21.5423 154.524 21.5423 154.347 21.7159Z" fill="#58B0E3"/>
<path fill-rule="evenodd" clip-rule="evenodd" d="M78.0514 12.4437V25.3307C78.0514 25.5763 77.8469 25.7739 77.5988 25.7739H74.8756C74.6248 25.7739 74.423 25.5737 74.423 25.3307V12.4437C74.423 12.1981 74.6275 12.0005 74.8756 12.0005H77.5988C77.8469 12.0005 78.0514 12.1981 78.0514 12.4437Z" fill="#034EA2"/>
<path fill-rule="evenodd" clip-rule="evenodd" d="M168.176 9.77661C168.512 9.77661 168.82 9.8567 169.098 10.0142C169.376 10.1717 169.597 10.3853 169.757 10.6576C169.918 10.9273 170 11.2236 170 11.5467C170 11.8751 169.918 12.1767 169.757 12.4491C169.597 12.7214 169.376 12.9376 169.098 13.0951C168.82 13.2527 168.512 13.3328 168.176 13.3328C167.841 13.3328 167.533 13.2527 167.25 13.0951C166.966 12.9376 166.745 12.7214 166.584 12.4491C166.424 12.1767 166.342 11.8751 166.342 11.5467C166.342 11.2236 166.424 10.9273 166.59 10.6576C166.753 10.388 166.977 10.1717 167.255 10.0142C167.533 9.8567 167.841 9.77661 168.176 9.77661ZM168.176 13.0124C168.449 13.0124 168.7 12.9483 168.931 12.8175C169.16 12.6867 169.34 12.5105 169.471 12.2835C169.602 12.0593 169.667 11.8137 169.667 11.544C169.667 11.2824 169.602 11.0421 169.471 10.8205C169.34 10.5989 169.16 10.4227 168.931 10.2919C168.702 10.1611 168.452 10.097 168.176 10.097C167.904 10.097 167.653 10.1611 167.421 10.2919C167.192 10.4227 167.01 10.5989 166.876 10.8205C166.742 11.0421 166.677 11.285 166.677 11.544C166.677 11.811 166.742 12.0566 166.876 12.2835C167.01 12.5078 167.192 12.6867 167.421 12.8175C167.653 12.9483 167.904 13.0124 168.176 13.0124ZM168.762 11.2263C168.762 11.0875 168.719 10.97 168.626 10.8792C168.536 10.7885 168.419 10.7431 168.277 10.7431H167.811C167.729 10.7431 167.691 10.7831 167.691 10.8605V12.2542C167.691 12.3343 167.732 12.3716 167.811 12.3716H167.857C167.939 12.3716 167.977 12.3316 167.977 12.2542V11.7336C167.977 11.7042 167.994 11.6882 168.024 11.6882H168.155C168.179 11.6882 168.198 11.7015 168.212 11.7256L168.427 12.2809C168.452 12.3423 168.498 12.3716 168.566 12.3716H168.632C168.7 12.3716 168.735 12.3449 168.735 12.2889C168.735 12.2648 168.732 12.2462 168.727 12.2355L168.503 11.6962C168.49 11.6668 168.498 11.6455 168.523 11.6321C168.681 11.5574 168.762 11.4212 168.762 11.2263ZM168.026 10.9887C167.996 10.9887 167.98 11.0047 167.98 11.0341V11.4265C167.98 11.4559 167.996 11.4719 168.026 11.4719H168.231C168.304 11.4719 168.364 11.4479 168.408 11.4025C168.452 11.3571 168.473 11.3011 168.473 11.2343C168.473 11.1542 168.452 11.0955 168.408 11.0528C168.364 11.0101 168.304 10.9887 168.231 10.9887H168.026Z" fill="#58B0E3"/>
<path fill-rule="evenodd" clip-rule="evenodd" d="M7.25944 7.10963H18.1526V8.88771H21.7809V3.55615H3.6311V21.3316H21.7809V16H18.1526V17.7781H7.25944V7.10963Z" fill="white"/>
<path fill-rule="evenodd" clip-rule="evenodd" d="M14.5216 24.8877V23.1096H10.8905V28.4439H29.0431V3.55615H25.412V10.6658H10.8905V16H14.5216V14.2219H25.412V24.8877H14.5216Z" fill="#58B0E3"/>
<path fill-rule="evenodd" clip-rule="evenodd" d="M0 0H32.6713V31.9973H3.63106V28.4412H0V0ZM25.4119 19.5535V24.8877H14.5215V23.1096H10.8904V28.4439H29.043V3.55615H25.4119V10.6658H10.8904V16H14.5215V14.2219H25.4119V19.5535ZM21.7809 21.3316V16H18.1526V17.7781H7.25939V7.10963H18.1498V8.8877H21.7809V3.55615H3.63106V21.3316H21.7809ZM5.44659 28.4439V26.6658H3.63106V28.4439H5.44659ZM0 30.2219V32H1.81553V30.2219H0Z" fill="#034EA2"/>
</svg>
