<svg width="146" height="36" viewBox="0 0 146 36" fill="none" xmlns="http://www.w3.org/2000/svg">
<path d="M96.22 8.84314H90.9042L90.926 17.3671H96.7613C96.9775 17.3671 97.2524 17.1281 97.5859 16.6485C97.9177 16.169 98.0853 15.4442 98.0853 14.4728V11.7374C98.0853 10.6333 97.6881 9.73439 96.8921 9.04205C96.7479 8.90944 96.5234 8.84314 96.22 8.84314Z" fill="#FF912C"/>
<path d="M0 0V36H146V0H0ZM29.6511 25.8293C29.6511 27.4792 29.2892 28.9702 28.5669 30.3009C27.8295 31.6178 26.824 32.6694 25.552 33.4558C24.2783 34.2545 22.8404 34.66 21.2349 34.6739H17.915C16.338 34.6739 14.9136 34.2684 13.6416 33.4558C12.3696 32.657 11.3557 31.5993 10.6049 30.2824C9.85243 28.9656 9.47704 27.5007 9.47704 25.8909V3.07466H15.9425V25.8308C15.9425 26.6295 16.152 27.3018 16.571 27.8477C16.99 28.3935 17.4391 28.6665 17.9167 28.6665H21.2366C21.6991 28.6526 22.1399 28.3812 22.5605 27.8477C22.9795 27.3281 23.1974 26.6573 23.2108 25.8308V3.07466H29.6545V25.8293H29.6511ZM53.9026 34.4534H37.3048V3.0947H43.7921L43.8139 28.685H53.9244L53.9026 34.4534ZM76.7632 8.84311H69.3659V34.4534H62.8786V8.84311H55.5031V3.0947H76.7632V8.84311ZM98.4104 34.4534L92.3136 23.1355H90.9242V34.4534H84.4805V3.0947H96.7596C98.2629 3.0947 99.5935 3.50024 100.752 4.31285C101.908 5.12545 102.826 6.17553 103.507 7.46614C104.187 8.75676 104.527 10.1815 104.527 11.7374V14.4712C104.527 15.2438 104.433 16.0548 104.246 16.906C103.725 19.2744 102.618 21.0245 100.926 22.1563C100.289 22.5819 99.7829 22.8487 99.4075 22.9551L105.591 34.4534H98.4104ZM129.93 34.4735L124.919 12.7751L119.887 34.4735H113.27L120.56 3.11475H129.26L136.528 34.4735H129.93Z" fill="#FF912C"/>
</svg>
