<svg width="158" height="36" viewBox="0 0 158 36" fill="none" xmlns="http://www.w3.org/2000/svg">
<path d="M20.0424 8.81506H15.1008V16.4917L19.6752 16.5278C19.8842 16.5043 20.0605 16.425 20.2077 16.2915C20.8438 15.66 21.1637 14.8626 21.1637 13.9028V11.4058C21.1637 10.5416 21.0238 9.89214 20.7421 9.45373C20.4585 9.02976 20.2259 8.81506 20.0424 8.81506Z" fill="#0072DC"/>
<path d="M0 36H36.2646V0H0V36ZM26.6178 13.9028C26.6178 15.3263 26.3306 16.627 25.7545 17.8052C25.1784 18.9851 24.4005 19.9377 23.4209 20.6683C22.4414 21.4098 21.3146 21.7815 20.0406 21.7815H15.1008V32.1572H9.64499V3.49103H20.0424C21.3164 3.49103 22.4432 3.88073 23.4228 4.65831C24.4023 5.36374 25.1802 6.31092 25.7563 7.50346C26.3324 8.696 26.6196 9.99679 26.6196 11.4058V13.9028H26.6178Z" fill="#0072DC"/>
<path d="M48.9374 3.50006H43.4633V32.1481H48.9374V3.50006Z" fill="#0072DC"/>
<path d="M56.1379 36H92.4025V0H56.1379V36ZM78.3303 32.1572L74.8027 24.4444L71.2024 32.1572H65.1396L71.7713 17.825L65.1396 3.51087L71.2188 3.54696L74.8009 11.2417L78.3085 3.54696H84.3877L77.756 17.825L84.4059 32.1572H78.3303Z" fill="#0072DC"/>
<path d="M113.523 32.1571H99.6176V3.50903H113.523V8.76091H105.053V15.1981H112.292V20.468H105.053V26.9052H113.523V32.1571Z" fill="#0072DC"/>
<path d="M121.735 36H158V0H121.735V36ZM148.746 32.1572H134.694V3.50907H140.186L140.204 26.8872H148.764L148.746 32.1572Z" fill="#0072DC"/>
</svg>
