<svg width="134" height="36" viewBox="0 0 134 36" fill="none" xmlns="http://www.w3.org/2000/svg">
<g clip-path="url(#clip0)">
<path d="M134 0H0V2.19108H134V0Z" fill="#1D609D"/>
<path d="M134 33.8091H0V36.0002H134V33.8091Z" fill="#1D609D"/>
<path d="M37.7313 32.3731H31.7443V20.24L28.1279 29.3887H22.3806L18.7443 20.187V32.3731H12.7573V4.46503H18.9255L25.2551 20.5592L31.603 4.46503H37.7313V32.3731Z" fill="#1D609D"/>
<path d="M62.4073 32.3731H47.198V4.46503H62.4073V9.58072H53.145V15.8524H61.0615V20.9857H53.145V27.2574H62.4073V32.3731Z" fill="#1D609D"/>
<path d="M83.0058 32.3732H79.7704C78.2433 32.3732 76.8576 32.0119 75.6117 31.2892C74.3657 30.5666 73.381 29.613 72.6574 28.4285C71.9338 27.244 71.5728 25.9535 71.5728 24.5557V11.8004C71.5728 10.3551 71.9338 9.05242 72.6574 7.89236C73.381 6.72007 74.3657 5.77327 75.6117 5.05061C76.8576 4.32794 78.2433 3.96661 79.7704 3.96661H83.0058C84.559 3.96661 85.9525 4.32794 87.1846 5.05061C88.4167 5.77327 89.4014 6.72007 90.1373 7.89236C90.5122 8.46016 90.781 9.0171 90.9408 9.56181C91.1282 10.1894 91.222 11.4214 91.222 13.2566H84.9539V12.0667C84.9262 11.2489 84.7127 10.5915 84.3102 10.0943C83.9491 9.67999 83.5128 9.47216 83.0043 9.47216H79.7689C79.2865 9.47216 78.844 9.69086 78.4431 10.1296C78.0283 10.5684 77.8209 11.124 77.8209 11.8004V24.5557C77.8209 25.2077 78.0283 25.7524 78.4431 26.1898C78.8456 26.6408 79.2865 26.865 79.7689 26.865H83.0842C83.5927 26.865 84.0413 26.6408 84.43 26.1898C84.831 25.7524 85.0322 25.2077 85.0322 24.5557L85.0122 22.2111H82.7216V17.0778H91.2204V24.9469H91.2004C91.1743 26.1314 90.8056 27.3037 90.0958 28.4651C89.3723 29.6374 88.3875 30.5788 87.1431 31.2892C85.8987 32.0119 84.5191 32.3732 83.0058 32.3732Z" fill="#1D609D"/>
<path d="M120.963 32.3907H114.855L110.214 13.0799L105.552 32.3907H99.4242L106.176 4.48267H114.233L120.963 32.3907Z" fill="#1D609D"/>
</g>
<defs>
<clipPath id="clip0">
<rect width="134" height="36" fill="white"/>
</clipPath>
</defs>
</svg>
