<svg xmlns="http://www.w3.org/2000/svg" width="102" height="45" fill="none" viewBox="0 0 102 45">
    <g clip-path="url(#clip0)">
        <path fill="#5E5E5E" d="M14.075 34.238c1.925-.62 3.206-2.456 3.13-4.49 0-3.121-2.463-5.073-6.491-5.073H1.962v19.822h9.04c4.376 0 7.158-2.188 7.158-5.422.11-2.438-1.671-4.547-4.085-4.837zm-9.358-7.114h5.709c2.635 0 4.144 1.137 4.144 2.973 0 1.984-1.537 3.206-4.35 3.206H4.716v-6.179zm6.172 14.926H4.72v-6.266h6.26c2.784 0 4.464 1.049 4.464 2.973-.003 1.864-1.627 3.293-4.554 3.293zM28.968 24.561l-8.78 19.94h2.955l2.2-5.102h9.854l2.2 5.101h2.955l-8.78-19.939h-2.604zm-2.523 12.272l3.825-8.921 3.825 8.92h-7.65zM57.338 33.45H46.474v-8.775h-2.751v19.822h2.75v-8.483h10.868v8.483h2.78V24.675h-2.783v8.776zM68.334 24.678h-2.751V44.5h2.751V24.678zM83.023 24.561H80.41l-8.78 19.94h2.956l2.2-5.102h9.853l2.2 5.101h2.955l-8.77-19.939zm-5.13 12.272l3.825-8.921 3.825 8.92h-7.65zM29.26 1.067l-8.405 20.008h5.233l1.31-3.422h8.373l1.338 3.422h5.233L33.968 1.067H29.26zm-.232 12.374l2.56-6.61 2.56 6.61h-5.12zM54.468 9.315l-2.76-.645c-1.571-.322-2.381-.818-2.381-1.959 0-1.286 1.133-2.047 2.877-2.047 1.639-.158 3.096 1.045 3.257 2.695h4.943c-.496-5.353-5.258-6.61-8.461-6.61-4.652 0-7.852 2.515-7.852 6.493 0 3.16 1.83 4.945 5.729 5.789l3.257.698c1.715.322 2.095 1.052 2.095 1.754 0 1.112-1.046 1.813-2.793 1.813-2.324 0-3.81-1.14-4.13-2.894h-4.943c.465 4.914 4.478 7.078 8.929 7.078 4.944 0 8.197-2.487 8.197-6.465-.003-3.419-2.33-4.91-5.964-5.7zM70.094 1.067l-8.402 20.008h5.232l1.31-3.422h8.374l1.337 3.422h5.233L74.805 1.067h-4.712zm-.233 12.374l2.56-6.61 2.56 6.61h-5.12zM95.298 9.315l-2.76-.645c-1.57-.322-2.381-.818-2.381-1.959 0-1.286 1.134-2.047 2.877-2.047 1.64-.158 3.097 1.045 3.257 2.695h4.937c-.496-5.353-5.258-6.61-8.461-6.61-4.652 0-7.852 2.515-7.852 6.493 0 3.16 1.83 4.945 5.729 5.789l3.257.698c1.715.322 2.095 1.052 2.095 1.754 0 1.112-1.046 1.813-2.793 1.813-2.324 0-3.81-1.14-4.127-2.894h-4.943c.465 4.914 4.479 7.078 8.93 7.078 4.943 0 8.197-2.487 8.197-6.465 0-3.419-2.328-4.91-5.962-5.7zM15.41 12.826c-.362 2.405-2.47 4.149-4.885 4.035-3.147-.133-5.593-2.806-5.461-5.972.122-2.98 2.497-5.368 5.461-5.495 2.416-.11 4.523 1.63 4.884 4.035l4.931-.79C19.492 3.922 15.313.56 10.554.77 4.869.67.183 5.226.086 10.945c-.098 5.72 4.431 10.434 10.116 10.531.116.004.232.004.352 0 4.764.209 8.948-3.163 9.79-7.883l-4.862-.777-.073.009z"/>
    </g>
    <defs>
        <clipPath id="clip0">
            <path fill="#fff" d="M0 0H101.176V43.75H0z" transform="translate(.083 .75)"/>
        </clipPath>
    </defs>
</svg>
