<svg xmlns="http://www.w3.org/2000/svg" width="87" height="46" fill="none" viewBox="0 0 87 46">
    <g fill="#5E5E5E" clip-path="url(#clip0)">
        <path d="M16.877 23.213C22.582 15.65 38.314.5 59.765.5c15.023 0 26.406 8.924 26.458 8.963-8.48-4.31-42.005-11.313-68.39 14.188l-.956-.438z"/>
        <path d="M84.468 25.888c.578 0 1.145.05 1.696.138v-4.87c-1.022-.147-2.114-.218-3.295-.218-8.196 0-14.385 5.126-14.385 11.982 0 .468.03.926.083 1.37-1.201-2.11-3.87-3.185-7.666-4.003-4.833-1.025-5.5-1.473-5.405-2.585.093-1.06 1.717-2.033 4.139-2.033 1.55 0 3.623.383 5.47 1.284v-5.1c-1.78-.57-3.725-.95-5.824-.95-6.1 0-10.192 3.054-10.517 7.247l-.004.078c-1.472-4.131-4.915-7.23-10.841-7.23-7.13 0-12.002 5.445-12.002 12.05 0 .168.005.335.011.5-1.34-3.041-4.837-4.443-9.56-5.52-5.574-1.25-6.37-1.823-6.37-3.151 0-1.274 1.425-2.362 3.647-2.313 1.726.038 2.756.47 3.23.647 1.378-1.785 2.858-3.498 4.428-5.122-2.335-.89-4.884-1.348-7.634-1.348-6.63 0-11.263 3.466-11.263 8.679 0 3.999 2.002 5.817 5.503 7.062.19.062.737.24 1.055.348 1.206.366 2.559.69 4.045 1.022 5.47 1.226 5.927 2.258 5.927 3.392 0 1.335-1.523 2.134-4.069 2.134-2.912 0-5.608-.896-8.43-2.803-1.446 2.045-2.939 4.288-3.734 5.665 3.532 2.01 7.654 3.252 11.979 3.262h.084c7.066-.01 11.521-3.199 11.75-8.411 1.496 4.754 5.686 7.844 11.35 7.844 1.09 0 2.656-.038 5.234-.707V39.16c-2.396.724-3.424.8-4.83.724-2.816-.151-5.114-1.81-5.774-4.715h17.031c.044-.595.088-.976.088-1.613v-.087c0-.625-.032-1.247-.1-1.86 1.295 1.867 4.133 2.626 8.027 3.45 4.741 1.007 5.006 1.765 5.006 2.926 0 1.026-1.264 2.204-4.066 2.107-2.878-.1-6.247-.995-8.85-2.532v5.85c2.715 1.268 6.158 2.06 8.833 2.06 6.415 0 10.818-3.925 10.818-8.17 0-.095-.004-.185-.007-.279 1.135 2.78 3.366 4.89 5.902 6.179 2.527 1.284 5.23 1.688 7.453 1.705 1.307.01 2.438-.09 3.528-.271v-4.947c-.549.092-1.118.14-1.696.14-4.747 0-8.598-3.122-8.598-6.97.004-3.85 3.856-6.97 8.603-6.97zm-51.97 5.25c.57-2.929 2.516-4.838 5.509-4.838 3.036 0 4.937 1.954 5.364 4.839H32.499z"/>
        <path d="M9.182 32.906C7.458 35 4.061 39.89 2.702 42.24 1.367 41.426.663 40.9.036 40.396c2.063-2.358 5.222-5.838 7.807-7.932.002-.002 1.184.38 1.34.442z"/>
    </g>
    <defs>
        <clipPath id="clip0">
            <path fill="#fff" d="M0 0H86.187V45H0z" transform="translate(.036 .5)"/>
        </clipPath>
    </defs>
</svg>
