<svg width="36" height="36" viewBox="0 0 36 36" fill="none" xmlns="http://www.w3.org/2000/svg">
<path d="M22.1636 1.7384L21.1607 5.48137C22.5331 5.8491 23.3551 7.27287 22.9873 8.64529C22.6196 10.0177 21.1958 10.8397 19.8234 10.472L18.8205 14.2149L22.5635 15.2179C22.1957 16.5903 23.0177 18.0141 24.3902 18.3818C25.7626 18.7495 27.1863 17.9275 27.5541 16.5551L31.297 17.558L34.6401 5.08148L22.1636 1.7384Z" fill="#034EA2" fill-opacity="0.1"/>
<path d="M22.1636 1.7384L21.1607 5.48137C22.5331 5.8491 23.3551 7.27287 22.9873 8.64529C22.6196 10.0177 21.1958 10.8397 19.8234 10.472L18.8205 14.2149L22.5635 15.2179C22.1957 16.5903 23.0177 18.0141 24.3902 18.3818C25.7626 18.7495 27.1863 17.9275 27.5541 16.5551L31.297 17.558L34.6401 5.08148L22.1636 1.7384Z" fill="url(#paint0_linear)"/>
<path d="M22.1636 1.7384L21.1607 5.48137C22.5331 5.8491 23.3551 7.27287 22.9873 8.64529C22.6196 10.0177 21.1958 10.8397 19.8234 10.472L18.8205 14.2149L22.5635 15.2179C22.1957 16.5903 23.0177 18.0141 24.3902 18.3818C25.7626 18.7495 27.1863 17.9275 27.5541 16.5551L31.297 17.558L34.6401 5.08148L22.1636 1.7384Z" stroke="#1D609D" stroke-miterlimit="10" stroke-linecap="round" stroke-linejoin="round"/>
<path d="M23.8124 21.2292C23.8124 22.65 22.6499 23.8125 21.2291 23.8125C19.8083 23.8125 18.6458 22.65 18.6458 21.2292H14.7708V17.3542C16.1916 17.3542 17.3541 16.1917 17.3541 14.7708C17.3541 13.35 16.1916 12.1875 14.7708 12.1875V8.3125H3.14575V32.8542H27.6874V21.2292H23.8124Z" fill="#034EA2" fill-opacity="0.1"/>
<path d="M23.8124 21.2292C23.8124 22.65 22.6499 23.8125 21.2291 23.8125C19.8083 23.8125 18.6458 22.65 18.6458 21.2292H14.7708V17.3542C16.1916 17.3542 17.3541 16.1917 17.3541 14.7708C17.3541 13.35 16.1916 12.1875 14.7708 12.1875V8.3125H3.14575V32.8542H27.6874V21.2292H23.8124Z" fill="url(#paint1_linear)"/>
<path d="M23.8124 21.2292C23.8124 22.65 22.6499 23.8125 21.2291 23.8125C19.8083 23.8125 18.6458 22.65 18.6458 21.2292H14.7708V17.3542C16.1916 17.3542 17.3541 16.1917 17.3541 14.7708C17.3541 13.35 16.1916 12.1875 14.7708 12.1875V8.3125H3.14575V32.8542H27.6874V21.2292H23.8124Z" stroke="#1D609D" stroke-miterlimit="10" stroke-linecap="round" stroke-linejoin="round"/>
<defs>
<linearGradient id="paint0_linear" x1="28.4018" y1="3.40994" x2="24.3902" y2="18.3818" gradientUnits="userSpaceOnUse">
<stop stop-color="white"/>
<stop offset="1" stop-color="white" stop-opacity="0"/>
</linearGradient>
<linearGradient id="paint1_linear" x1="15.4166" y1="8.3125" x2="15.4166" y2="32.8542" gradientUnits="userSpaceOnUse">
<stop stop-color="white"/>
<stop offset="1" stop-color="white" stop-opacity="0"/>
</linearGradient>
</defs>
</svg>
