<svg xmlns="http://www.w3.org/2000/svg" width="68" height="50" fill="none" viewBox="0 0 68 50">
    <path fill="#5E5E5E" d="M65.636 35.306c0 2.063-2.505 4.598-4.542 4.598h-1.855c.002-12.623.002-26.775 0-29.287 0-.075.014-.149.042-.218.028-.068.07-.131.123-.184.053-.053.116-.096.186-.125.07-.029.145-.044.22-.045h5.252c.316 0 .574.26.574.576v24.685zm-8.559 9.027c0 1.306-.65 3.493-5.005 3.493-8.44 0-13.622-6.497-13.622-11.157 0 0-.01-15.068-.01-26.048 0-.074.014-.148.042-.217.029-.07.07-.132.124-.185.053-.053.116-.096.186-.125.07-.029.145-.044.22-.044h5.259c.316 0 .575.258.575.576v24.21c0 4 3.222 7.245 7.194 7.245h5.04l-.003 2.252zm8.384-36.459h-6.05c-1.287 0-2.334 1.056-2.334 2.351v29.681h-5.041c-2.781 0-5.035-2.27-5.035-5.07V10.225c0-1.298-1.046-2.352-2.335-2.352h-6.053c-1.29 0-2.335 1.054-2.337 2.352-.003 10.731.01 26.444.01 26.444C36.285 44.93 45.478 50 52.07 50c4.42 0 7.166-2.176 7.166-5.681V42.08h1.857c3.257 0 6.702-3.482 6.702-6.775V10.225c.003-1.298-1.043-2.352-2.334-2.352v.001zM29.704 39.38c0 .074-.013.148-.042.217-.028.069-.07.132-.123.185-.053.053-.117.095-.187.124-.07.029-.144.044-.22.044h-5.258c-.154-.002-.3-.063-.408-.171-.108-.108-.168-.253-.167-.404v-24.21c0-4-3.223-7.245-7.194-7.245h-5.04V5.667c0-1.303.65-3.493 5.005-3.493 8.44 0 13.624 6.497 13.624 11.158 0 0 .01 15.14.01 26.047zm-26.627.575c-.154-.002-.3-.064-.407-.173-.107-.108-.167-.253-.165-.404v-24.68c0-2.063 2.505-4.602 4.541-4.602h1.857c-.003 18.077-.003 27.327 0 29.28.001.152-.058.297-.166.405-.107.108-.254.17-.407.172H3.078l-.001.002zM31.852 13.33C31.852 5.071 22.66 0 16.07 0 11.65 0 8.903 2.176 8.903 5.681V7.92H7.047C3.79 7.92.344 11.401.344 14.694v25.081c0 1.298 1.046 2.352 2.334 2.352h6.05c.037 0 .07-.01.107-.01 1.236-.059 2.227-1.082 2.227-2.342V10.094h5.041c2.78 0 5.035 2.27 5.035 5.07v24.611c0 1.298 1.046 2.352 2.334 2.352h6.054c1.29 0 2.334-1.051 2.334-2.352.005-10.931-.007-26.444-.007-26.444h-.001z"/>
</svg>
