<svg width="24" height="24" viewBox="0 0 24 24" fill="none" xmlns="http://www.w3.org/2000/svg">
<path d="M7.74136 3.05335C7.42443 2.95943 7.0045 2.97509 6.69549 3.21771L6.02201 3.73428C6.00617 3.7421 5.99824 3.75776 5.9824 3.77341C4.40567 5.29961 3.85105 7.18584 4.03328 9.03294C4.21552 10.88 5.11084 12.688 6.36271 14.1986L8.70799 17.1492L8.71592 17.157C9.89648 18.7224 11.4574 19.9981 13.2242 20.6164C14.9911 21.2347 16.9878 21.1565 18.8656 20.0059C18.8814 19.9981 18.8973 19.9825 18.9131 19.9746L19.5866 19.4581C19.8956 19.2155 20.0145 18.8241 19.9986 18.4954C19.9828 18.1667 19.8639 17.8614 19.7213 17.564C19.4361 16.977 19.0082 16.4292 18.6596 16.0613C17.9861 15.216 17.376 14.6447 16.7263 14.3786C16.0687 14.1046 15.3397 14.2142 14.801 14.6368L13.969 15.2865C13.7234 15.4821 13.4065 15.5056 13.0579 15.4117C12.7092 15.3178 12.3606 15.083 12.2259 14.903L9.42901 11.3809C9.28639 11.2009 9.13585 10.8174 9.12792 10.4574C9.12 10.0974 9.223 9.79995 9.46862 9.61211L10.3006 8.9625C10.8473 8.53986 11.1246 7.87459 11.0137 7.17802C10.8948 6.48144 10.4828 5.76139 9.80932 4.9161C9.53201 4.50129 9.09623 3.96125 8.58914 3.54644C8.3356 3.33511 8.05829 3.14727 7.74136 3.05335Z" stroke="#272727" stroke-width="2" stroke-miterlimit="10" stroke-linecap="round" stroke-linejoin="round"/>
</svg>
