<svg width="37" height="36" viewBox="0 0 37 36" fill="none" xmlns="http://www.w3.org/2000/svg">
<g clip-path="url(#clip0)">
<path d="M20.261 9.69573L10.6561 14.4125C10.3203 14.5595 10.0684 14.8638 9.97399 15.2205L6.28027 29.2714C6.18705 29.6309 6.63309 29.7361 6.89311 29.4709C7.10758 29.2521 7.37226 28.9874 7.69689 28.6627L14.1594 22.2002C14.4122 21.9475 14.4547 21.5592 14.4547 21.2019C14.4547 20.4148 15.0843 19.7852 15.8713 19.7852C16.6584 19.7852 17.288 20.4148 17.288 21.2019C17.288 21.9889 16.6584 22.6185 15.8713 22.6185C15.514 22.6185 15.1266 22.6601 14.8739 22.9129C12.8307 24.9561 9.04894 28.7378 7.58698 30.1998C7.33385 30.4529 7.45374 30.8765 7.80183 30.7929L21.8422 27.0992C22.1989 27.0048 22.5033 26.7529 22.6607 26.4171L27.3045 16.7392L20.261 9.69573Z" fill="url(#paint0_linear)"/>
<path d="M10.8565 14.8706L10.8666 14.8662L10.8765 14.8614L20.1604 10.3022L26.7004 16.8423L22.2099 26.2008L22.2098 26.2008L22.2079 26.2049C22.1139 26.4054 21.9294 26.5588 21.7145 26.6158C21.7144 26.6158 21.7143 26.6159 21.7142 26.6159L8.3665 30.1274L15.2275 23.2664C15.3225 23.1714 15.5146 23.1185 15.8713 23.1185C16.9345 23.1185 17.788 22.265 17.788 21.2019C17.788 20.1387 16.9345 19.2852 15.8713 19.2852C14.8082 19.2852 13.9547 20.1387 13.9547 21.2019C13.9547 21.5577 13.9012 21.7513 13.8059 21.8467L7.34334 28.3092L7.69689 28.6628L7.34334 28.3092L7.34158 28.311C7.1986 28.454 7.06678 28.5858 6.94552 28.7074L10.4573 15.3485C10.4574 15.3484 10.4574 15.3482 10.4574 15.3481C10.5149 15.1316 10.6673 14.9534 10.8565 14.8706ZM6.53171 29.1243C6.53167 29.1242 6.53244 29.1235 6.53414 29.1227C6.5326 29.124 6.53175 29.1244 6.53171 29.1243Z" stroke="#034EA2" stroke-opacity="0.4"/>
<path d="M25.8159 16.588L20.4013 11.1733C19.1074 9.87936 19.1054 7.77145 20.4019 6.46512C21.6959 5.1718 23.8034 5.17004 25.1095 6.46639C25.1097 6.46659 25.1099 6.46678 25.1101 6.46698L30.5235 11.8804C31.8176 13.1745 31.8194 15.2829 30.5223 16.5892C29.2284 17.8922 27.1219 17.894 25.8159 16.588Z" fill="url(#paint1_linear)" stroke="url(#paint2_linear)"/>
</g>
<defs>
<linearGradient id="paint0_linear" x1="10.8697" y1="12.6305" x2="22.0219" y2="26.1305" gradientUnits="userSpaceOnUse">
<stop stop-color="#E4E8ED"/>
<stop offset="0.497191" stop-color="white"/>
<stop offset="1" stop-color="#BBC4D0"/>
</linearGradient>
<linearGradient id="paint1_linear" x1="18.9325" y1="11.5335" x2="31.9995" y2="11.5335" gradientUnits="userSpaceOnUse">
<stop stop-color="#00A1FF"/>
<stop offset="1" stop-color="#58B0E3"/>
</linearGradient>
<linearGradient id="paint2_linear" x1="17.9132" y1="3.8262" x2="30.8262" y2="17.9132" gradientUnits="userSpaceOnUse">
<stop stop-color="#767676" stop-opacity="0.52"/>
<stop offset="1" stop-color="#272727" stop-opacity="0"/>
</linearGradient>
<clipPath id="clip0">
<rect width="36" height="36" fill="white" transform="translate(1)"/>
</clipPath>
</defs>
</svg>
