<svg width="36" height="36" viewBox="0 0 36 36" fill="none" xmlns="http://www.w3.org/2000/svg">
<g opacity="0.7">
<path d="M27.5451 13.3786L10.1763 14.3367L10.6003 22.0239L27.9691 21.0658L27.5451 13.3786Z" fill="#00A1FF" fill-opacity="0.4"/>
<path d="M27.5451 13.3786L10.1763 14.3367L10.6003 22.0239L27.9691 21.0658L27.5451 13.3786Z" fill="url(#paint0_linear)"/>
</g>
<path d="M10.1763 14.3367L27.5451 13.3786" stroke="#00A1FF" stroke-miterlimit="10" stroke-linecap="round" stroke-linejoin="round"/>
<path d="M9.96191 10.4546L25.0046 9.62488C26.2955 9.55368 27.4014 10.5465 27.4728 11.8405L27.9816 21.0651" stroke="#00A1FF" stroke-miterlimit="10" stroke-linecap="round" stroke-linejoin="round"/>
<path d="M3.84717 3.47974L6.58221 3.32887C8.2309 3.23793 9.63358 4.49706 9.72475 6.14981C10.018 11.4668 10.6131 22.0232 10.6131 22.0232L27.9819 21.0651L28.2879 26.6127C28.3353 27.4711 29.0636 28.1249 29.9199 28.0777L32.1054 27.9571" stroke="#00A1FF" stroke-miterlimit="10" stroke-linecap="round" stroke-linejoin="round"/>
<path opacity="0.3" d="M28.4787 30.0719C29.5304 30.0139 30.3358 29.1122 30.2777 28.0579C30.2195 27.0036 29.3198 26.196 28.2681 26.254C27.2164 26.312 26.4109 27.2137 26.4691 28.268C26.5272 29.3223 27.427 30.13 28.4787 30.0719Z" fill="url(#paint1_linear)"/>
<path d="M28.5223 30.8663C30.0116 30.7841 31.1522 29.5072 31.0699 28.0142C30.9875 26.5212 29.7134 25.3775 28.224 25.4596C26.7347 25.5418 25.5941 26.8187 25.6765 28.3117C25.7588 29.8047 27.0329 30.9485 28.5223 30.8663Z" stroke="black" stroke-miterlimit="10" stroke-linecap="round" stroke-linejoin="round"/>
<path d="M30.0346 28.0713C30.0854 28.9938 29.3852 29.7778 28.465 29.8285C27.5448 29.8793 26.7625 29.1771 26.7116 28.2546C26.6607 27.3321 27.361 26.5482 28.2812 26.4974C29.2014 26.4466 29.9837 27.1489 30.0346 28.0713ZM30.6736 28.0361C30.6036 26.7677 29.5239 25.7863 28.2459 25.8568C26.9678 25.9273 26.0019 27.0087 26.0726 28.2899C26.1433 29.5711 27.2222 30.5396 28.5003 30.4691C29.7784 30.3986 30.7436 29.3045 30.6736 28.0361Z" fill="url(#paint2_linear)"/>
<path opacity="0.3" d="M11.1396 31.7994C16.4193 31.5082 20.4628 26.9815 20.1708 21.6887C19.8789 16.396 15.3621 12.3414 10.0823 12.6327C4.80256 12.9239 0.75913 17.4506 1.05108 22.7434C1.34302 28.0361 5.85979 32.0907 11.1396 31.7994Z" fill="url(#paint3_linear)"/>
<path d="M11.1396 31.7994C16.4193 31.5082 20.4628 26.9815 20.1708 21.6887C19.8789 16.396 15.3621 12.3414 10.0823 12.6327C4.80256 12.9239 0.75913 17.4506 1.05108 22.7434C1.34302 28.0361 5.85979 32.0907 11.1396 31.7994Z" stroke="black" stroke-miterlimit="10" stroke-linecap="round" stroke-linejoin="round"/>
<path d="M18.4838 21.7818C18.7241 26.1379 15.3917 29.8686 11.0463 30.1083C6.7009 30.3479 2.97841 27.0064 2.73813 22.6503C2.49785 18.2942 5.83024 14.5636 10.1756 14.3239C14.521 14.0842 18.2435 17.4257 18.4838 21.7818ZM19.7619 21.7113C19.482 16.6377 15.1533 12.7642 10.105 13.0427C5.05664 13.3211 1.18093 17.6601 1.46007 22.7208C1.73922 27.7816 6.06864 31.6679 11.117 31.3895C16.1653 31.111 20.041 26.772 19.7619 21.7113Z" fill="url(#paint4_linear)"/>
<path d="M10.878 27.059C13.5461 26.9118 15.5895 24.6242 15.4419 21.9496C15.2944 19.2749 13.0119 17.2259 10.3438 17.3731C7.67563 17.5203 5.6323 19.8078 5.77983 22.4825C5.92736 25.1572 8.2099 27.2062 10.878 27.059Z" stroke="black" stroke-miterlimit="10" stroke-linecap="round" stroke-linejoin="round"/>
<path d="M29.5 32L29.2931 31.5448C29.0788 31.6422 28.9615 31.8758 29.0113 32.1058C29.0612 32.3359 29.2646 32.5 29.5 32.5V32ZM35 32V32.5C35.2761 32.5 35.5 32.2761 35.5 32H35ZM35 29.5H35.5C35.5 29.33 35.4136 29.1716 35.2707 29.0796C35.1278 28.9876 34.9479 28.9745 34.7931 29.0448L35 29.5ZM29.5 32.5H35V31.5H29.5V32.5ZM35.5 32V29.5H34.5V32H35.5ZM34.7931 29.0448L29.2931 31.5448L29.7069 32.4552L35.2069 29.9552L34.7931 29.0448Z" fill="#00A1FF"/>
<defs>
<linearGradient id="paint0_linear" x1="10.0817" y1="16.5146" x2="26.5567" y2="15.6058" gradientUnits="userSpaceOnUse">
<stop stop-color="white"/>
<stop offset="1" stop-color="white" stop-opacity="0"/>
</linearGradient>
<linearGradient id="paint1_linear" x1="26.4583" y1="28.2705" x2="30.2792" y2="28.0598" gradientUnits="userSpaceOnUse">
<stop stop-color="#E6E6E6"/>
<stop offset="1" stop-color="#CCCCCC"/>
</linearGradient>
<linearGradient id="paint2_linear" x1="30.6736" y1="28.0361" x2="26.0726" y2="28.2899" gradientUnits="userSpaceOnUse">
<stop stop-color="#A8A8A8"/>
<stop offset="1" stop-color="#ECECEC"/>
</linearGradient>
<linearGradient id="paint3_linear" x1="1.05108" y1="22.7435" x2="20.1609" y2="21.6894" gradientUnits="userSpaceOnUse">
<stop stop-color="#E6E6E6"/>
<stop offset="1" stop-color="#CCCCCC"/>
</linearGradient>
<linearGradient id="paint4_linear" x1="19.7619" y1="21.7113" x2="1.46007" y2="22.7208" gradientUnits="userSpaceOnUse">
<stop stop-color="#C9C9C9"/>
<stop offset="1" stop-color="#F3F3F3"/>
</linearGradient>
</defs>
</svg>
