<svg width="99" height="29" viewBox="0 0 99 29" fill="none" xmlns="http://www.w3.org/2000/svg">
<g opacity="0.9">
<rect x="74.1007" y="29" width="4" height="4.14286" rx="0.5" transform="rotate(-180 74.1007 29)" fill="#68C659"/>
<rect x="98.1007" y="29" width="4" height="4.14286" rx="0.5" transform="rotate(-180 98.1007 29)" fill="#68C659"/>
<rect x="98.1007" y="4.14282" width="4" height="4.14286" rx="0.5" transform="rotate(-180 98.1007 4.14282)" fill="#68C659"/>
<rect width="2" height="2.07143" rx="0.5" transform="matrix(1 9.0545e-08 8.44082e-08 -1 71.1007 3.10718)" fill="#68C659"/>
<rect opacity="0.6" width="4" height="4.14286" rx="0.5" transform="matrix(1 9.0545e-08 8.44082e-08 -1 46.1007 4.14282)" fill="#68C659"/>
<rect opacity="0.65" x="50.1007" y="29" width="4" height="4.14286" rx="0.5" transform="rotate(-180 50.1007 29)" fill="#68C659"/>
<rect x="25.1007" y="27.9644" width="2" height="2.07143" rx="0.5" transform="rotate(-180 25.1007 27.9644)" fill="#68C659"/>
<rect x="2.10071" y="27.9644" width="2" height="2.07143" rx="0.5" transform="rotate(-180 2.10071 27.9644)" fill="#68C659"/>
</g>
</svg>
