<svg width="99" height="28" viewBox="0 0 99 28" fill="none" xmlns="http://www.w3.org/2000/svg">
<g opacity="0.9">
<rect x="74.1008" y="28" width="4" height="4" rx="0.5" transform="rotate(-180 74.1008 28)" fill="#FF912C"/>
<rect x="98.1008" y="28" width="4" height="4" rx="0.5" transform="rotate(-180 98.1008 28)" fill="#FF912C"/>
<rect x="98.1008" y="4" width="4" height="4" rx="0.5" transform="rotate(-180 98.1008 4)" fill="#FF912C"/>
<rect width="2" height="2" rx="0.5" transform="matrix(1 8.74228e-08 8.74228e-08 -1 71.1008 3)" fill="#FF912C"/>
<rect opacity="0.6" width="4" height="4" rx="0.5" transform="matrix(1 8.74228e-08 8.74228e-08 -1 46.1008 4)" fill="#FF912C"/>
<rect opacity="0.65" x="50.1008" y="28" width="4" height="4" rx="0.5" transform="rotate(-180 50.1008 28)" fill="#FF912C"/>
<rect x="25.1008" y="27" width="2" height="2" rx="0.5" transform="rotate(-180 25.1008 27)" fill="#FF912C"/>
<rect x="2.10083" y="27" width="2" height="2" rx="0.5" transform="rotate(-180 2.10083 27)" fill="#FF912C"/>
</g>
</svg>
