<svg xmlns="http://www.w3.org/2000/svg" width="221" height="15" fill="none" viewBox="0 0 221 15">
    <path fill="#5E5E5E" d="M193.978 3.333v3.013h26.046v2.568h-26.046v3.013h26.046v2.56h-29.36V.773h29.36v2.56h-26.046zm-10.54 2.993h-20.126V.75h-3.308v13.711h3.308v-5.12h20.125v5.12h3.308V.75h-3.308l.001 5.576zm-54.603-2.527v7.654c-.003.399.081.795.247 1.164.165.37.409.705.718.988.309.284.676.508 1.08.662.404.153.838.233 1.276.233l23.987-.022v-3.013h-23.539c-.11-.002-.215-.041-.295-.11-.08-.069-.129-.162-.138-.262V4.21c.017-.12.081-.228.181-.307.1-.078.228-.12.36-.118h23.431V.772h-23.947c-.887-.003-1.738.314-2.368.882-.63.568-.987 1.34-.993 2.148v-.003zm-7.291 2.543l-21.13.007c-.071.004-.142-.005-.209-.027s-.129-.056-.181-.1c-.052-.045-.094-.098-.123-.158-.028-.06-.043-.123-.044-.188V3.821c0-.065.014-.13.042-.19.028-.06.07-.115.121-.16.052-.045.113-.08.18-.104.067-.023.139-.034.211-.032h23.981V.775h-24.59c-.877.009-1.714.335-2.327.905-.612.571-.951 1.34-.942 2.138v2.056c0 .808.352 1.583.98 2.155.627.571 1.478.892 2.365.892l21.13-.007c.071-.002.142.008.208.03.067.023.127.057.179.101.052.045.093.098.122.157.029.059.045.122.046.187v2.063c0 .065-.015.129-.044.188-.028.06-.07.113-.122.158-.052.044-.113.078-.18.1-.067.022-.139.031-.21.027h-24.02v2.56h24.558c.885.002 1.734-.317 2.361-.885.627-.569.981-1.341.983-2.147V9.39c-.004-.807-.357-1.58-.983-2.151-.627-.57-1.476-.893-2.362-.895v-.002zm-28.841 8.072v.036h-3.33v-.539c0-.808-.353-1.583-.98-2.154s-1.478-.892-2.365-.892H67.574v3.607h-3.309V.762h25.08c.436 0 .868.077 1.271.229.404.151.77.374 1.08.655.308.28.554.614.721.981.168.367.254.76.254 1.158v2.973c.006.786-.325 1.544-.923 2.112-.598.569-1.415.903-2.278.932.967.407 1.785 1.058 2.358 1.876.573.818.876 1.768.874 2.738v-.002zM89.35 4.306c0-.136-.06-.267-.166-.364-.105-.097-.248-.153-.398-.156L67.573 3.78v4.068h21.274c.138-.01.267-.067.36-.16.094-.094.144-.216.141-.342l.002-3.04zm-29.082-.515v7.654c.002.399-.082.793-.248 1.162-.167.368-.411.703-.72.985-.31.282-.676.506-1.08.658-.405.152-.838.23-1.276.229H35.766c-.438.002-.873-.074-1.28-.224-.406-.15-.776-.373-1.088-.654-.313-.28-.56-.615-.731-.983-.17-.368-.259-.764-.261-1.163V3.802c.004-.808.36-1.582.99-2.151.631-.57 1.484-.887 2.371-.884h21.23c.873.01 1.706.332 2.32.899.612.566.954 1.33.95 2.125zm-3.301.515c-.005-.137-.067-.268-.175-.365-.108-.097-.253-.151-.405-.153H36.28c-.132-.002-.26.04-.36.118-.1.078-.165.188-.181.307v6.883c.008.1.057.194.137.262.08.069.186.108.296.11h20.268c.142-.008.276-.063.374-.157.1-.093.156-.216.16-.346l-.006-6.659zm-28.452-.515v4.043c0 .4-.086.794-.253 1.163-.168.369-.414.703-.724.985-.31.282-.678.505-1.083.657-.405.151-.84.229-1.277.227H3.494v3.61H.186V.765h24.992c.438-.002.872.074 1.277.225.405.152.774.374 1.084.655.31.282.557.616.725.984.168.369.255.763.255 1.162h-.004zm-3.316.517c0-.136-.06-.267-.166-.364-.106-.097-.248-.153-.398-.156L3.494 3.782v4.069H24.7c.139-.008.27-.064.363-.158.094-.094.143-.218.138-.345l-.002-3.04z"/>
</svg>
