<svg width="36" height="36" viewBox="0 0 36 36" fill="none" xmlns="http://www.w3.org/2000/svg">
<path d="M33.6029 27.1351L31.5135 27.9438C31.3651 28.0033 31.2044 28.027 31.056 28.027H13.3636V10.7838C13.3636 10.1297 13.92 9.5946 14.6 9.5946H33.1455C33.8255 9.5946 34.3818 10.1297 34.3818 10.7838V26.0292C34.3818 26.5168 34.0727 26.9568 33.6029 27.1351Z" fill="#FFAE73"/>
<path d="M33.6029 27.1351L31.5135 27.9438C31.3651 28.0033 31.2044 28.027 31.056 28.027H13.3636V10.7838C13.3636 10.1297 13.92 9.5946 14.6 9.5946H33.1455C33.8255 9.5946 34.3818 10.1297 34.3818 10.7838V26.0292C34.3818 26.5168 34.0727 26.9568 33.6029 27.1351Z" fill="url(#paint0_linear)"/>
<path d="M33.6029 27.1351L31.5135 27.9438C31.3651 28.0033 31.2044 28.027 31.056 28.027H13.3636V10.7838C13.3636 10.1297 13.92 9.5946 14.6 9.5946H33.1455C33.8255 9.5946 34.3818 10.1297 34.3818 10.7838V26.0292C34.3818 26.5168 34.0727 26.9568 33.6029 27.1351Z" stroke="#FF912C" stroke-miterlimit="10" stroke-linecap="round" stroke-linejoin="round"/>
<path d="M13.3636 28.0271H2.85453C2.17453 28.0271 1.61816 27.4919 1.61816 26.8379V20.6541C1.61816 20.4281 1.69235 20.2022 1.81598 20.0119L5.26544 14.8984C5.50035 14.5535 5.88362 14.3514 6.30398 14.3514H13.3636V28.0271Z" fill="#FFF0E1" stroke="#FF912C" stroke-miterlimit="10" stroke-linecap="round" stroke-linejoin="round"/>
<path d="M8.00605 30.4054C9.3717 30.4054 10.4788 29.3405 10.4788 28.027C10.4788 26.7135 9.3717 25.6486 8.00605 25.6486C6.6404 25.6486 5.53333 26.7135 5.53333 28.027C5.53333 29.3405 6.6404 30.4054 8.00605 30.4054Z" fill="white" stroke="#FF912C" stroke-miterlimit="10" stroke-linecap="round" stroke-linejoin="round"/>
<path d="M25.1091 30.4054C26.4747 30.4054 27.5818 29.3405 27.5818 28.027C27.5818 26.7135 26.4747 25.6486 25.1091 25.6486C23.7434 25.6486 22.6364 26.7135 22.6364 28.027C22.6364 29.3405 23.7434 30.4054 25.1091 30.4054Z" fill="white" stroke="#FF912C" stroke-miterlimit="10" stroke-linecap="round" stroke-linejoin="round"/>
<path d="M4.70908 19.7027H10.8909V16.7297H6.7738L4.70908 19.7027Z" fill="white" stroke="#FF912C" stroke-miterlimit="10" stroke-linecap="round" stroke-linejoin="round"/>
<defs>
<linearGradient id="paint0_linear" x1="19.4168" y1="28.25" x2="19.4168" y2="9.91667" gradientUnits="userSpaceOnUse">
<stop stop-color="#FFCFA4"/>
<stop offset="1" stop-color="white" stop-opacity="0"/>
</linearGradient>
</defs>
</svg>
