<svg width="26" height="26" viewBox="0 0 26 26" fill="none" xmlns="http://www.w3.org/2000/svg">
<path d="M18.0611 7H7.93793C7.35006 7 6.82199 7.39082 6.60278 8.00496L1.11276 22.7556C0.714208 23.8164 1.42163 25 2.45786 25H23.5511C24.5873 25 25.2848 23.8164 24.8863 22.7556L19.3962 7.9938C19.1671 7.39082 18.639 7 18.0611 7Z" fill="#FFBA7A"/>
<path d="M18.0611 7H7.93793C7.35006 7 6.82199 7.39082 6.60278 8.00496L1.11276 22.7556C0.714208 23.8164 1.42163 25 2.45786 25H23.5511C24.5873 25 25.2848 23.8164 24.8863 22.7556L19.3962 7.9938C19.1671 7.39082 18.639 7 18.0611 7Z" fill="url(#paint0_linear)" fill-opacity="0.6"/>
<path d="M18.0611 7H7.93793C7.35006 7 6.82199 7.39082 6.60278 8.00496L1.11276 22.7556C0.714208 23.8164 1.42163 25 2.45786 25H23.5511C24.5873 25 25.2848 23.8164 24.8863 22.7556L19.3962 7.9938C19.1671 7.39082 18.639 7 18.0611 7Z" stroke="#FF912C" stroke-miterlimit="10" stroke-linecap="round" stroke-linejoin="round"/>
<path d="M12.9996 6.50512C14.4798 6.50512 15.6798 5.27275 15.6798 3.75256C15.6798 2.23236 14.4798 1 12.9996 1C11.5193 1 10.3193 2.23236 10.3193 3.75256C10.3193 5.27275 11.5193 6.50512 12.9996 6.50512Z" stroke="#FF912C" stroke-miterlimit="10" stroke-linecap="round" stroke-linejoin="round"/>
<defs>
<linearGradient id="paint0_linear" x1="13" y1="7" x2="13" y2="25" gradientUnits="userSpaceOnUse">
<stop stop-color="white"/>
<stop offset="1" stop-color="white" stop-opacity="0"/>
</linearGradient>
</defs>
</svg>
